<svg width='200' height='200' fill="#000000" xmlns="http://www.w3.org/2000/svg" xmlns:sodipodi="http://sodipodi.sourceforge.net/DTD/sodipodi-0.dtd" viewBox="0 0 100 100" x="0px" y="0px"><path d="m 28.15625,5 c -0.99411,0 -1.8,0.805889 -1.8,1.8 l 0,8.4 c 0,0.99411 0.80589,1.8 1.8,1.8 0.99411,0 1.8,-0.80589 1.8,-1.8 l 0,-4.05 L 48.2,29.39375 48.2,48.2 29.39375,48.2 11.15,29.95625 l 4.05,0 c 0.99411,0 1.8,-0.80589 1.8,-1.8 0,-0.99411 -0.80589,-1.8 -1.8,-1.8 l -8.4,0 c -0.99411,0 -1.8,0.80589 -1.8,1.8 l 0,8.4 c 0,0.99411 0.80589,1.8 1.8,1.8 0.99411,0 1.8,-0.80589 1.8,-1.8 l 0,-4.05 L 26.09375,50 8.6,67.49375 l 0,-4.05 c 0,-0.99411 -0.80589,-1.8 -1.8,-1.8 -0.99411,0 -1.8,0.80589 -1.8,1.8 l 0,8.4 c 0,0.99411 0.80589,1.8 1.8,1.8 l 8.4,0 c 0.99411,0 1.8,-0.80589 1.8,-1.8 0,-0.99411 -0.80589,-1.8 -1.8,-1.8 l -4.05,0 L 29.39375,51.8 48.2,51.8 48.2,70.60625 29.95625,88.85 l 0,-4.05 c 0,-0.99411 -0.80589,-1.8 -1.8,-1.8 -0.99411,0 -1.8,0.80589 -1.8,1.8 l 0,8.4 c 0,0.99411 0.80589,1.8 1.8,1.8 l 8.4,0 c 0.99411,0 1.8,-0.80589 1.8,-1.8 0,-0.99411 -0.80589,-1.8 -1.8,-1.8 l -4.05,0 L 50,73.90625 67.49375,91.4 l -4.05,0 c -0.99411,0 -1.8,0.80589 -1.8,1.8 0,0.99411 0.80589,1.8 1.8,1.8 l 8.4,0 c 0.99411,0 1.8,-0.80589 1.8,-1.8 l 0,-8.4 c 0,-0.99411 -0.80589,-1.8 -1.8,-1.8 -0.99411,0 -1.8,0.80589 -1.8,1.8 l 0,4.05 L 51.8,70.60625 51.8,51.8 l 18.80625,0 18.24375,18.24375 -4.05,0 c -0.99411,0 -1.8,0.80589 -1.8,1.8 0,0.99411 0.80589,1.8 1.8,1.8 l 8.4,0 c 0.99411,0 1.8,-0.80589 1.8,-1.8 l 0,-8.4 c 0,-0.99411 -0.80589,-1.8 -1.8,-1.8 -0.99411,0 -1.8,0.80589 -1.8,1.8 l 0,4.05 L 73.90625,50 91.4,32.50625 l 0,4.05 c 0,0.99411 0.80589,1.8 1.8,1.8 0.99411,0 1.8,-0.80589 1.8,-1.8 l 0,-8.4 c 0,-0.99411 -0.80589,-1.8 -1.8,-1.8 l -8.4,0 c -0.99411,0 -1.8,0.80589 -1.8,1.8 0,0.99411 0.80589,1.8 1.8,1.8 l 4.05,0 L 70.60625,48.2 51.8,48.2 51.8,29.39375 70.04375,11.15 l 0,4.05 c 0,0.99411 0.80589,1.8 1.8,1.8 0.99411,0 1.8,-0.80589 1.8,-1.8 l 0,-8.4 c 0,-0.994111 -0.80589,-1.8 -1.8,-1.8 l -8.4,0 c -0.99411,0 -1.8,0.805889 -1.8,1.8 0,0.994113 0.80589,1.8 1.8,1.8 l 4.05,0 L 50,26.09375 32.50625,8.6 l 4.05,0 c 0.99411,0 1.8,-0.805887 1.8,-1.8 0,-0.994111 -0.80589,-1.8 -1.8,-1.8 z"/></svg>