<?xml version="1.0" encoding="utf-8"?>
<!-- Generator: Adobe Illustrator 19.2.1, SVG Export Plug-In . SVG Version: 6.00 Build 0)  -->
<svg version="1.1" id="图层_1" xmlns="http://www.w3.org/2000/svg" xmlns:xlink="http://www.w3.org/1999/xlink" x="0px" y="0px"
	 viewBox="0 0 44 102" style="enable-background:new 0 0 44 102;" xml:space="preserve">
<style type="text/css">
	.st0{fill:#FFFFFF;}
	.st1{fill:#FF9595;}
</style>
<g>
	<g>
		<path class="st0" d="M19.9,101.9c-4.2,0-7.6-3-8.3-7.1L8.1,70.9l-1.2-0.8c-2.1-1.4-3.5-3.7-3.7-6.2L0.9,38.2
			c-0.4-4,1-7.8,3.9-10.6C6,26.3,7.4,25.3,9,24.6l2.1-0.9l-1.2-2c-1.4-2.2-2.1-4.8-2.1-7.4C7.8,6.5,14.2,0.1,22,0.1
			s14.2,6.4,14.2,14.2c0,2.6-0.7,5.2-2.1,7.4l-1.2,2l2.1,0.9c1.6,0.7,3,1.6,4.3,2.9c2.8,2.8,4.2,6.7,3.9,10.6l-2.3,25.8
			c-0.2,2.5-1.6,4.8-3.7,6.2l-1.2,0.8l-3.6,23.8c-0.6,4.1-4.1,7.1-8.3,7.1H19.9z"/>
	</g>
	<g>
		<g>
			<path class="st1" d="M36.5,30.3c-1.8-1.8-4.1-2.8-6.6-2.8l-15.7,0c-2.5,0-4.9,1-6.6,2.8c-2,2-3,4.7-2.7,7.5l2.3,25.8
				c0.1,1.3,0.8,2.5,1.9,3.3l2.6,1.8l3.8,25.6c0.3,2.2,2.2,3.7,4.3,3.7h4.2c2.2,0,4-1.6,4.3-3.7l3.8-25.6l2.6-1.8
				c1.1-0.7,1.8-1.9,1.9-3.3c0.5-5.2,1.7-18.8,2.3-25.8C39.4,35,38.4,32.3,36.5,30.3z"/>
		</g>
		<g>
			<circle class="st1" cx="22" cy="14.4" r="10.3"/>
		</g>
	</g>
</g>
</svg>
