<?xml version="1.0" encoding="utf-8"?>
<!-- Generator: Adobe Illustrator 21.1.0, SVG Export Plug-In . SVG Version: 6.00 Build 0)  -->
<svg version="1.1" id="Layer_1" xmlns="http://www.w3.org/2000/svg" xmlns:xlink="http://www.w3.org/1999/xlink" x="0px" y="0px"
	 viewBox="0 0 1764.9 306.3" style="enable-background:new 0 0 1764.9 306.3;" xml:space="preserve">
<style type="text/css">
	.st0{fill:#E6E7E8;}
</style>
<g>
	<path class="st0" d="M5.6,63.9c1.9-0.1,3.3-1.8,3.2-3.7c-0.2-2.8-0.2-5.4-0.2-7.8c0-10.4,1.5-16.3,3-19.3v64.4
		c0,2.9,2.4,5.3,5.3,5.3s5.3-2.4,5.3-5.3V58.8h2v38.7c0,2.9,2.4,5.3,5.3,5.3s5.3-2.4,5.3-5.3V33.3c0.2,0.5,0.5,1.1,0.7,1.8
		c1.3,3.3,2.2,8.9,2.2,17.4c0,2.4-0.1,5-0.2,7.8c-0.1,1.9,1.4,3.5,3.2,3.7c0.1,0,0.1,0,0.2,0c1.8,0,3.3-1.4,3.4-3.2
		c0.2-3,0.2-5.7,0.2-8.2c0-12.9-2.1-20.1-4.9-24.4c-1.5-2.2-3-3.5-4.6-4.3c-1.5-0.7-2.7-0.9-3.4-0.9c-0.1,0-0.1,0-0.2,0H14.9
		c-0.1,0-0.1,0-0.2,0c-0.7,0-2.1,0.2-3.4,0.9c-2.3,1.1-4.8,3.7-6.6,8c-1.8,4.5-3,11-3,20.7c0,2.5,0.1,5.2,0.2,8.2
		c0.2,1.9,1.7,3.2,3.5,3.2C5.4,63.9,5.5,63.9,5.6,63.9z"/>
	<circle class="st0" cx="23.1" cy="10.7" r="9.7"/>
</g>
<g>
	<path class="st0" d="M53.3,63.9c1.9-0.1,3.3-1.8,3.2-3.7c-0.2-2.8-0.2-5.4-0.2-7.8c0-10.4,1.5-16.3,3-19.3v64.4
		c0,2.9,2.4,5.3,5.3,5.3c2.9,0,5.3-2.4,5.3-5.3V58.8h2v38.7c0,2.9,2.4,5.3,5.3,5.3c2.9,0,5.3-2.4,5.3-5.3V33.3
		c0.2,0.5,0.5,1.1,0.7,1.8c1.1,3.3,2.2,8.9,2.2,17.4c0,2.4-0.1,5-0.2,7.8c-0.1,1.9,1.4,3.5,3.2,3.7c0.1,0,0.1,0,0.2,0
		c1.8,0,3.3-1.4,3.4-3.2c0.2-3,0.2-5.7,0.2-8.2c0-12.9-2.1-20.1-4.9-24.4c-1.5-2.2-3-3.5-4.6-4.3c-1.5-0.7-2.7-0.9-3.4-0.9
		c-0.1,0-0.1,0-0.2,0H62.6c-0.1,0-0.1,0-0.2,0c-0.7,0-2.1,0.2-3.4,0.9c-2.3,1.1-4.8,3.7-6.6,8c-1.8,4.5-2.9,10.9-2.9,20.7
		c0,2.5,0.1,5.2,0.2,8.2c0.1,1.8,1.7,3.2,3.4,3.2C53.2,63.9,53.3,63.9,53.3,63.9z"/>
	<circle class="st0" cx="70.9" cy="10.7" r="9.7"/>
</g>
<g>
	<path class="st0" d="M101.1,63.9c1.9-0.1,3.3-1.8,3.2-3.7c-0.2-2.8-0.2-5.4-0.2-7.8c0-10.4,1.5-16.3,3-19.3v64.4
		c0,2.9,2.4,5.3,5.3,5.3c2.9,0,5.3-2.4,5.3-5.3V58.8h2v38.7c0,2.9,2.4,5.3,5.3,5.3c2.9,0,5.3-2.4,5.3-5.3V33.3
		c0.2,0.5,0.5,1.1,0.7,1.8c1.3,3.3,2.2,8.9,2.2,17.4c0,2.4-0.1,5-0.2,7.8c-0.1,1.9,1.4,3.5,3.2,3.7c0.1,0,0.1,0,0.2,0
		c1.8,0,3.3-1.4,3.4-3.2c0.2-3,0.2-5.7,0.2-8.2c0-12.9-2.1-20.1-4.9-24.4c-1.5-2.2-3-3.5-4.6-4.3c-1.5-0.7-2.7-0.9-3.4-0.9
		c-0.1,0-0.1,0-0.2,0h-16.6c-0.1,0-0.1,0-0.2,0c-0.7,0-2.1,0.2-3.4,0.9c-2.3,1.1-4.8,3.7-6.6,8c-1.8,4.5-2.9,10.9-2.9,20.7
		c0,2.5,0.1,5.2,0.2,8.2c0.1,1.8,1.7,3.2,3.4,3.2C101,63.9,101.1,63.9,101.1,63.9z"/>
	<circle class="st0" cx="118.7" cy="10.7" r="9.7"/>
</g>
<g>
	<path class="st0" d="M148.9,63.9c1.9-0.1,3.3-1.8,3.2-3.7c-0.2-2.8-0.2-5.4-0.2-7.8c0-10.4,1.5-16.3,3-19.3v64.4
		c0,2.9,2.4,5.3,5.3,5.3c2.9,0,5.3-2.4,5.3-5.3V58.8h2v38.7c0,2.9,2.4,5.3,5.3,5.3s5.3-2.4,5.3-5.3V33.3c0.2,0.5,0.5,1.1,0.7,1.8
		c1.3,3.3,2.2,8.9,2.2,17.4c0,2.4-0.1,5-0.2,7.8c-0.1,1.9,1.4,3.5,3.2,3.7c0.1,0,0.1,0,0.2,0c1.8,0,3.3-1.4,3.4-3.2
		c0.2-3,0.2-5.7,0.2-8.2c0-12.9-2.1-20.1-4.9-24.4c-1.5-2.2-3-3.5-4.6-4.3c-1.5-0.7-2.7-0.9-3.4-0.9c-0.1,0-0.1,0-0.2,0h-16.6
		c-0.1,0-0.1,0-0.2,0c-0.7,0-2.1,0.2-3.4,0.9c-2.3,1.1-4.8,3.7-6.6,8c-1.8,4.5-2.9,10.9-2.9,20.7c0,2.5,0.1,5.2,0.2,8.2
		c0.1,1.8,1.7,3.2,3.4,3.2C148.8,63.9,148.8,63.9,148.9,63.9z"/>
	<circle class="st0" cx="166.5" cy="10.7" r="9.7"/>
</g>
<g>
	<path class="st0" d="M196.7,63.9c1.9-0.1,3.3-1.8,3.2-3.7c-0.2-2.8-0.2-5.4-0.2-7.8c0-10.4,1.5-16.3,3-19.3v64.4
		c0,2.9,2.4,5.3,5.3,5.3c2.9,0,5.3-2.4,5.3-5.3V58.8h2v38.7c0,2.9,2.4,5.3,5.3,5.3c2.9,0,5.3-2.4,5.3-5.3V33.3
		c0.2,0.5,0.5,1.1,0.7,1.8c1.3,3.3,2.2,8.9,2.2,17.4c0,2.4-0.1,5-0.2,7.8c-0.1,1.9,1.4,3.5,3.2,3.7c0.1,0,0.1,0,0.2,0
		c1.8,0,3.3-1.4,3.4-3.2c0.2-3,0.2-5.7,0.2-8.2c0-12.9-2.1-20.1-4.9-24.4c-1.5-2.2-3-3.5-4.6-4.3c-1.5-0.7-2.7-0.9-3.4-0.9
		c-0.1,0-0.1,0-0.2,0h-16.6c-0.1,0-0.1,0-0.2,0c-0.7,0-2.1,0.2-3.4,0.9c-2.3,1.1-4.8,3.7-6.6,8c-1.8,4.5-2.9,10.9-2.9,20.7
		c0,2.5,0.1,5.2,0.2,8.2c0.1,1.8,1.7,3.2,3.4,3.2C196.6,63.9,196.6,63.9,196.7,63.9z"/>
	<circle class="st0" cx="214.2" cy="10.7" r="9.7"/>
</g>
<g>
	<path class="st0" d="M244.5,63.9c1.9-0.1,3.3-1.8,3.2-3.7c-0.2-2.8-0.2-5.4-0.2-7.8c0-10.4,1.5-16.3,3-19.3v64.4
		c0,2.9,2.4,5.3,5.3,5.3s5.3-2.4,5.3-5.3V58.8h2v38.7c0,2.9,2.4,5.3,5.3,5.3s5.3-2.4,5.3-5.3V33.3c0.2,0.5,0.5,1.1,0.7,1.8
		c1.3,3.3,2.2,8.9,2.2,17.4c0,2.4-0.1,5-0.2,7.8c-0.1,1.9,1.4,3.5,3.2,3.7c0.1,0,0.1,0,0.2,0c1.8,0,3.3-1.4,3.4-3.2
		c0.2-3,0.2-5.7,0.2-8.2c0-12.9-2.1-20.1-4.9-24.4c-1.5-2.2-3-3.5-4.6-4.3c-1.5-0.7-2.7-0.9-3.4-0.9c-0.1,0-0.1,0-0.2,0h-16.6
		c-0.1,0-0.1,0-0.2,0c-0.7,0-2.1,0.2-3.4,0.9c-2.3,1.1-4.8,3.7-6.6,8c-1.8,4.5-2.9,10.9-2.9,20.7c0,2.5,0.1,5.2,0.2,8.2
		c0.1,1.8,1.7,3.2,3.4,3.2C244.4,63.9,244.4,63.9,244.5,63.9z"/>
	<circle class="st0" cx="262" cy="10.7" r="9.7"/>
</g>
<g>
	<path class="st0" d="M292.3,63.9c1.9-0.1,3.3-1.8,3.2-3.7c-0.2-2.8-0.2-5.4-0.2-7.8c0-10.4,1.5-16.3,3-19.3v64.4
		c0,2.9,2.4,5.3,5.3,5.3c2.9,0,5.3-2.4,5.3-5.3V58.8h2v38.7c0,2.9,2.4,5.3,5.3,5.3s5.3-2.4,5.3-5.3V33.3c0.2,0.5,0.5,1.1,0.7,1.8
		c1.3,3.3,2.2,8.9,2.2,17.4c0,2.4-0.1,5-0.2,7.8c-0.1,1.9,1.4,3.5,3.2,3.7c0.1,0,0.1,0,0.2,0c1.8,0,3.3-1.4,3.4-3.2
		c0.2-3,0.2-5.7,0.2-8.2c0-12.9-2.1-20.1-4.9-24.4c-1.5-2.2-3-3.5-4.6-4.3c-1.5-0.7-2.7-0.9-3.4-0.9c-0.1,0-0.1,0-0.2,0h-16.7
		c-0.1,0-0.1,0-0.2,0c-0.7,0-2.1,0.2-3.4,0.9c-2.3,1.1-4.8,3.7-6.6,8c-1.8,4.5-2.9,10.9-2.9,20.7c0,2.5,0.1,5.2,0.2,8.2
		c0.1,1.8,1.7,3.2,3.4,3.2C292.1,63.9,292.2,63.9,292.3,63.9z"/>
	<circle class="st0" cx="309.8" cy="10.7" r="9.7"/>
</g>
<g>
	<path class="st0" d="M340.1,63.9c1.9-0.1,3.3-1.8,3.2-3.7c-0.2-2.8-0.2-5.4-0.2-7.8c0-10.4,1.5-16.3,3-19.3v64.4
		c0,2.9,2.4,5.3,5.3,5.3c2.9,0,5.3-2.4,5.3-5.3V58.8h2v38.7c0,2.9,2.4,5.3,5.3,5.3c2.9,0,5.3-2.4,5.3-5.3V33.3
		c0.2,0.5,0.5,1.1,0.7,1.8c1.3,3.3,2.2,8.9,2.2,17.4c0,2.4-0.1,5-0.2,7.8c-0.1,1.9,1.4,3.5,3.2,3.7c0.1,0,0.1,0,0.2,0
		c1.8,0,3.3-1.4,3.4-3.2c0.2-3,0.2-5.7,0.2-8.2c0-12.9-2.1-20.1-4.9-24.4c-1.5-2.2-3-3.5-4.6-4.3c-1.5-0.7-2.7-0.9-3.4-0.9
		c-0.1,0-0.1,0-0.2,0h-16.6c-0.1,0-0.1,0-0.2,0c-0.7,0-2.1,0.2-3.4,0.9c-2.3,1.1-4.8,3.7-6.6,8c-1.8,4.5-2.9,10.9-2.9,20.7
		c0,2.5,0.1,5.2,0.2,8.2c0.1,1.8,1.7,3.2,3.4,3.2C339.9,63.9,340,63.9,340.1,63.9z"/>
	<circle class="st0" cx="357.6" cy="10.7" r="9.7"/>
</g>
<g>
	<path class="st0" d="M387.8,63.9c1.9-0.1,3.3-1.8,3.2-3.7c-0.2-2.8-0.2-5.4-0.2-7.8c0-10.4,1.5-16.3,3-19.3v64.4
		c0,2.9,2.4,5.3,5.3,5.3c2.9,0,5.3-2.4,5.3-5.3V58.8h2v38.7c0,2.9,2.4,5.3,5.3,5.3c2.9,0,5.3-2.4,5.3-5.3V33.3
		c0.2,0.5,0.5,1.1,0.7,1.8c1.3,3.3,2.2,8.9,2.2,17.4c0,2.4-0.1,5-0.2,7.8c-0.1,1.9,1.4,3.5,3.2,3.7c0.1,0,0.1,0,0.2,0
		c1.8,0,3.3-1.4,3.4-3.2c0.2-3,0.2-5.7,0.2-8.2c0-12.9-2.1-20.1-4.9-24.4c-1.5-2.2-3-3.5-4.6-4.3c-1.5-0.7-2.7-0.9-3.4-0.9
		c-0.1,0-0.1,0-0.2,0h-16.6c-0.1,0-0.1,0-0.2,0c-0.7,0-2.1,0.2-3.4,0.9c-2.3,1.1-4.8,3.7-6.6,8c-1.8,4.5-2.9,10.9-2.9,20.7
		c0,2.5,0.1,5.2,0.2,8.2c0.1,1.8,1.7,3.2,3.4,3.2C387.7,63.9,387.8,63.9,387.8,63.9z"/>
	<circle class="st0" cx="405.4" cy="10.7" r="9.7"/>
</g>
<g>
	<path class="st0" d="M435.6,63.9c1.9-0.1,3.3-1.8,3.2-3.7c-0.2-2.8-0.2-5.4-0.2-7.8c0-10.4,1.5-16.3,3-19.3v64.4
		c0,2.9,2.4,5.3,5.3,5.3s5.3-2.4,5.3-5.3V58.8h2v38.7c0,2.9,2.4,5.3,5.3,5.3c2.9,0,5.3-2.4,5.3-5.3V33.3c0.2,0.5,0.5,1.1,0.7,1.8
		c1.3,3.3,2.2,8.9,2.2,17.4c0,2.4-0.1,5-0.2,7.8c-0.1,1.9,1.4,3.5,3.2,3.7c0.1,0,0.1,0,0.2,0c1.8,0,3.3-1.4,3.4-3.2
		c0.2-3,0.2-5.7,0.2-8.2c0-12.9-2.1-20.1-4.9-24.4c-1.5-2.2-3-3.5-4.6-4.3c-1.5-0.7-2.7-0.9-3.4-0.9c-0.1,0-0.1,0-0.2,0H445
		c-0.1,0-0.1,0-0.2,0c-0.7,0-2.1,0.2-3.4,0.9c-2.3,1.1-4.8,3.7-6.6,8c-1.8,4.5-2.9,10.9-2.9,20.7c0,2.5,0.1,5.2,0.2,8.2
		c0.1,1.8,1.7,3.2,3.4,3.2C435.5,63.9,435.6,63.9,435.6,63.9z"/>
	<circle class="st0" cx="453.2" cy="10.7" r="9.7"/>
</g>
<g>
	<path class="st0" d="M483.4,63.9c1.9-0.1,3.3-1.8,3.2-3.7c-0.2-2.8-0.2-5.4-0.2-7.8c0-10.4,1.5-16.3,3-19.3v64.4
		c0,2.9,2.4,5.3,5.3,5.3c2.9,0,5.3-2.4,5.3-5.3V58.8h2v38.7c0,2.9,2.4,5.3,5.3,5.3s5.3-2.4,5.3-5.3V33.3c0.2,0.5,0.5,1.1,0.7,1.8
		c1.3,3.3,2.2,8.9,2.2,17.4c0,2.4-0.1,5-0.2,7.8c-0.1,1.9,1.4,3.5,3.2,3.7c0.1,0,0.1,0,0.2,0c1.8,0,3.3-1.4,3.4-3.2
		c0.2-3,0.2-5.7,0.2-8.2c0-12.9-2.1-20.1-4.9-24.4c-1.5-2.2-3-3.5-4.6-4.3c-1.5-0.7-2.7-0.9-3.4-0.9c-0.1,0-0.1,0-0.2,0h-16.6
		c-0.1,0-0.1,0-0.2,0c-0.7,0-2.1,0.2-3.4,0.9c-2.3,1.1-4.8,3.7-6.6,8c-1.8,4.5-2.9,10.9-2.9,20.7c0,2.5,0.1,5.2,0.2,8.2
		c0.1,1.8,1.7,3.2,3.4,3.2C483.3,63.9,483.3,63.9,483.4,63.9z"/>
	<circle class="st0" cx="501" cy="10.7" r="9.7"/>
</g>
<g>
	<path class="st0" d="M531.2,63.9c1.9-0.1,3.3-1.8,3.2-3.7c-0.2-2.8-0.2-5.4-0.2-7.8c0-10.4,1.5-16.3,3-19.3v64.4
		c0,2.9,2.4,5.3,5.3,5.3c2.9,0,5.3-2.4,5.3-5.3V58.8h2v38.7c0,2.9,2.4,5.3,5.3,5.3c2.9,0,5.3-2.4,5.3-5.3V33.3
		c0.2,0.5,0.5,1.1,0.7,1.8c1.3,3.3,2.2,8.9,2.2,17.4c0,2.4-0.1,5-0.2,7.8c-0.1,1.9,1.4,3.5,3.2,3.7c0.1,0,0.1,0,0.2,0
		c1.8,0,3.3-1.4,3.4-3.2c0.2-3,0.2-5.7,0.2-8.2c0-12.9-2.1-20.1-4.9-24.4c-1.5-2.2-3-3.5-4.6-4.3c-1.5-0.7-2.7-0.9-3.4-0.9
		c-0.1,0-0.1,0-0.2,0h-16.6c-0.1,0-0.1,0-0.2,0c-0.7,0-2.1,0.2-3.4,0.9c-2.3,1.1-4.8,3.7-6.6,8c-1.8,4.5-2.9,10.9-2.9,20.7
		c0,2.5,0.1,5.2,0.2,8.2c0.1,1.8,1.7,3.2,3.4,3.2C531.1,63.9,531.1,63.9,531.2,63.9z"/>
	<circle class="st0" cx="548.7" cy="10.7" r="9.7"/>
</g>
<g>
	<path class="st0" d="M579,63.9c1.9-0.1,3.3-1.8,3.2-3.7c-0.2-2.8-0.2-5.4-0.2-7.8c0-10.4,1.5-16.3,3-19.3v64.4
		c0,2.9,2.4,5.3,5.3,5.3c2.9,0,5.3-2.4,5.3-5.3V58.8h2v38.7c0,2.9,2.4,5.3,5.3,5.3c2.9,0,5.3-2.4,5.3-5.3V33.3
		c0.2,0.5,0.5,1.1,0.7,1.8c1.3,3.3,2.2,8.9,2.2,17.4c0,2.4-0.1,5-0.2,7.8c-0.1,1.9,1.4,3.5,3.2,3.7c0.1,0,0.1,0,0.2,0
		c1.8,0,3.3-1.4,3.4-3.2c0.2-3,0.2-5.7,0.2-8.2c0-12.9-2.1-20.1-4.9-24.4c-1.5-2.2-3-3.5-4.6-4.3c-1.5-0.7-2.7-0.9-3.4-0.9
		c-0.1,0-0.1,0-0.2,0h-16.6c-0.1,0-0.1,0-0.2,0c-0.7,0-2.1,0.2-3.4,0.9c-2.3,1.1-4.8,3.7-6.6,8c-1.8,4.5-2.9,10.9-2.9,20.7
		c0,2.5,0.1,5.2,0.2,8.2c0.1,1.8,1.7,3.2,3.4,3.2C578.8,63.9,578.9,63.9,579,63.9z"/>
	<circle class="st0" cx="596.5" cy="10.7" r="9.7"/>
</g>
<g>
	<path class="st0" d="M626.8,63.9c1.9-0.1,3.3-1.8,3.2-3.7c-0.2-2.8-0.2-5.4-0.2-7.8c0-10.4,1.5-16.3,3-19.3v64.4
		c0,2.9,2.4,5.3,5.3,5.3c2.9,0,5.3-2.4,5.3-5.3V58.8h2v38.7c0,2.9,2.4,5.3,5.3,5.3c2.9,0,5.3-2.4,5.3-5.3V33.3
		c0.2,0.5,0.5,1.1,0.7,1.8c1.3,3.3,2.2,8.9,2.2,17.4c0,2.4-0.1,5-0.2,7.8c-0.1,1.9,1.4,3.5,3.2,3.7c0.1,0,0.1,0,0.2,0
		c1.8,0,3.3-1.4,3.4-3.2c0.2-3,0.2-5.7,0.2-8.2c0-12.9-2.1-20.1-4.9-24.4c-1.5-2.2-3-3.5-4.6-4.3c-1.5-0.7-2.7-0.9-3.4-0.9
		c-0.1,0-0.1,0-0.2,0h-16.6c-0.1,0-0.1,0-0.2,0c-0.7,0-2.1,0.2-3.4,0.9c-2.3,1.1-4.8,3.7-6.6,8c-1.8,4.5-2.9,10.9-2.9,20.7
		c0,2.5,0.1,5.2,0.2,8.2c0.1,1.8,1.7,3.2,3.4,3.2C626.6,63.9,626.7,63.9,626.8,63.9z"/>
	<circle class="st0" cx="644.3" cy="10.7" r="9.7"/>
</g>
<g>
	<path class="st0" d="M674.5,63.9c1.9-0.1,3.3-1.8,3.2-3.7c-0.2-2.8-0.2-5.4-0.2-7.8c0-10.4,1.5-16.3,3-19.3v64.4
		c0,2.9,2.4,5.3,5.3,5.3c2.9,0,5.3-2.4,5.3-5.3V58.8h2v38.7c0,2.9,2.4,5.3,5.3,5.3s5.3-2.4,5.3-5.3V33.3c0.2,0.5,0.5,1.1,0.7,1.8
		c1.3,3.3,2.2,8.9,2.2,17.4c0,2.4-0.1,5-0.2,7.8c-0.1,1.9,1.4,3.5,3.2,3.7c0.1,0,0.1,0,0.2,0c1.8,0,3.3-1.4,3.4-3.2
		c0.2-3,0.2-5.7,0.2-8.2c0-12.9-2.1-20.1-4.9-24.4c-1.5-2.2-3-3.5-4.6-4.3c-1.5-0.7-2.7-0.9-3.4-0.9c-0.1,0-0.1,0-0.2,0h-16.6
		c-0.1,0-0.1,0-0.2,0c-0.7,0-2.1,0.2-3.4,0.9c-2.3,1.1-4.8,3.7-6.6,8c-1.8,4.5-2.9,10.9-2.9,20.7c0,2.5,0.1,5.2,0.2,8.2
		c0.1,1.8,1.7,3.2,3.4,3.2C674.4,63.9,674.5,63.9,674.5,63.9z"/>
	<circle class="st0" cx="692.1" cy="10.7" r="9.7"/>
</g>
<g>
	<path class="st0" d="M722.3,63.9c1.9-0.1,3.3-1.8,3.2-3.7c-0.2-2.8-0.2-5.4-0.2-7.8c0-10.4,1.5-16.3,3-19.3v64.4
		c0,2.9,2.4,5.3,5.3,5.3c2.9,0,5.3-2.4,5.3-5.3V58.8h2v38.7c0,2.9,2.4,5.3,5.3,5.3c2.9,0,5.3-2.4,5.3-5.3V33.3
		c0.2,0.5,0.5,1.1,0.7,1.8c1.3,3.3,2.2,8.9,2.2,17.4c0,2.4-0.1,5-0.2,7.8c-0.1,1.9,1.4,3.5,3.2,3.7c0.1,0,0.1,0,0.2,0
		c1.8,0,3.3-1.4,3.4-3.2c0.2-3,0.2-5.7,0.2-8.2c0-12.9-2.1-20.1-4.9-24.4c-1.5-2.2-3-3.5-4.6-4.3c-1.5-0.7-2.7-0.9-3.4-0.9
		c-0.1,0-0.1,0-0.2,0h-16.7c-0.1,0-0.1,0-0.2,0c-0.7,0-2.1,0.2-3.4,0.9c-2.3,1.1-4.8,3.7-6.6,8c-1.8,4.5-2.9,10.9-2.9,20.7
		c0,2.5,0.1,5.2,0.2,8.2c0.1,1.8,1.7,3.2,3.4,3.2C722.2,63.9,722.3,63.9,722.3,63.9z"/>
	<circle class="st0" cx="739.9" cy="10.7" r="9.7"/>
</g>
<g>
	<path class="st0" d="M770.1,63.9c1.9-0.1,3.3-1.8,3.2-3.7c-0.2-2.8-0.2-5.4-0.2-7.8c0-10.4,1.5-16.3,3-19.3v64.4
		c0,2.9,2.4,5.3,5.3,5.3c2.9,0,5.3-2.4,5.3-5.3V58.8h2v38.7c0,2.9,2.4,5.3,5.3,5.3c2.9,0,5.3-2.4,5.3-5.3V33.3
		c0.2,0.5,0.5,1.1,0.7,1.8c1.3,3.3,2.2,8.9,2.2,17.4c0,2.4-0.1,5-0.2,7.8c-0.1,1.9,1.4,3.5,3.2,3.7c0.1,0,0.1,0,0.2,0
		c1.8,0,3.3-1.4,3.4-3.2c0.2-3,0.2-5.7,0.2-8.2c0-12.9-2.1-20.1-4.9-24.4c-1.5-2.2-3-3.5-4.6-4.3c-1.5-0.7-2.7-0.9-3.4-0.9
		c-0.1,0-0.1,0-0.2,0h-16.6c-0.1,0-0.1,0-0.2,0c-0.7,0-2.1,0.2-3.4,0.9c-2.3,1.1-4.8,3.7-6.6,8c-1.8,4.5-2.9,10.9-2.9,20.7
		c0,2.5,0.1,5.2,0.2,8.2c0.1,1.8,1.7,3.2,3.4,3.2C770,63.9,770.1,63.9,770.1,63.9z"/>
	<circle class="st0" cx="787.7" cy="10.7" r="9.7"/>
</g>
<g>
	<path class="st0" d="M817.9,63.9c1.9-0.1,3.3-1.8,3.2-3.7c-0.2-2.8-0.2-5.4-0.2-7.8c0-10.4,1.5-16.3,3-19.3v64.4
		c0,2.9,2.4,5.3,5.3,5.3c2.9,0,5.3-2.4,5.3-5.3V58.8h2v38.7c0,2.9,2.4,5.3,5.3,5.3c2.9,0,5.3-2.4,5.3-5.3V33.3
		c0.2,0.5,0.5,1.1,0.7,1.8c1.3,3.3,2.2,8.9,2.2,17.4c0,2.4-0.1,5-0.2,7.8c-0.1,1.9,1.4,3.5,3.2,3.7c0.1,0,0.1,0,0.2,0
		c1.8,0,3.3-1.4,3.4-3.2c0.2-3,0.2-5.7,0.2-8.2c0-12.9-2.1-20.1-4.9-24.4c-1.5-2.2-3-3.5-4.6-4.3c-1.5-0.7-2.7-0.9-3.4-0.9
		c-0.1,0-0.1,0-0.2,0h-16.6c-0.1,0-0.1,0-0.2,0c-0.7,0-2.1,0.2-3.4,0.9c-2.3,1.1-4.8,3.7-6.6,8c-1.8,4.5-2.9,10.9-2.9,20.7
		c0,2.5,0.1,5.2,0.2,8.2c0.1,1.8,1.7,3.2,3.4,3.2C817.8,63.9,817.8,63.9,817.9,63.9z"/>
	<circle class="st0" cx="835.4" cy="10.7" r="9.7"/>
</g>
<g>
	<path class="st0" d="M865.7,63.9c1.9-0.1,3.3-1.8,3.2-3.7c-0.2-2.8-0.2-5.4-0.2-7.8c0-10.4,1.5-16.3,3-19.3v64.4
		c0,2.9,2.4,5.3,5.3,5.3c2.9,0,5.3-2.4,5.3-5.3V58.8h2v38.7c0,2.9,2.4,5.3,5.3,5.3c2.9,0,5.3-2.4,5.3-5.3V33.3
		c0.2,0.5,0.5,1.1,0.7,1.8c1.3,3.3,2.2,8.9,2.2,17.4c0,2.4-0.1,5-0.2,7.8c-0.1,1.9,1.4,3.5,3.2,3.7c0.1,0,0.1,0,0.2,0
		c1.8,0,3.3-1.4,3.4-3.2c0.2-3,0.2-5.7,0.2-8.2c0-12.9-2.1-20.1-4.9-24.4c-1.5-2.2-3-3.5-4.6-4.3c-1.5-0.7-2.7-0.9-3.4-0.9
		c-0.1,0-0.1,0-0.2,0h-16.6c-0.1,0-0.1,0-0.2,0c-0.7,0-2.1,0.2-3.4,0.9c-2.3,1.1-4.8,3.7-6.6,8c-1.8,4.5-2.9,10.9-2.9,20.7
		c0,2.5,0.1,5.2,0.2,8.2c0.1,1.8,1.7,3.2,3.4,3.2C865.6,63.9,865.6,63.9,865.7,63.9z"/>
	<circle class="st0" cx="883.2" cy="10.7" r="9.7"/>
</g>
<g>
	<path class="st0" d="M913.5,63.9c1.9-0.1,3.3-1.8,3.2-3.7c-0.2-2.8-0.2-5.4-0.2-7.8c0-10.4,1.5-16.3,3-19.3v64.4
		c0,2.9,2.4,5.3,5.3,5.3s5.3-2.4,5.3-5.3V58.8h2v38.7c0,2.9,2.4,5.3,5.3,5.3c2.9,0,5.3-2.4,5.3-5.3V33.3c0.2,0.5,0.5,1.1,0.7,1.8
		c1.3,3.3,2.2,8.9,2.2,17.4c0,2.4-0.1,5-0.2,7.8c-0.1,1.9,1.4,3.5,3.2,3.7c0.1,0,0.1,0,0.2,0c1.8,0,3.3-1.4,3.4-3.2
		c0.2-3,0.2-5.7,0.2-8.2c0-12.9-2.1-20.1-4.9-24.4c-1.5-2.2-3-3.5-4.6-4.3c-1.5-0.7-2.7-0.9-3.4-0.9c-0.1,0-0.1,0-0.2,0h-16.6
		c-0.1,0-0.1,0-0.2,0c-0.7,0-2.1,0.2-3.4,0.9c-2.3,1.1-4.8,3.7-6.6,8c-1.8,4.5-2.9,10.9-2.9,20.7c0,2.5,0.1,5.2,0.2,8.2
		c0.1,1.8,1.7,3.2,3.4,3.2C913.3,63.9,913.4,63.9,913.5,63.9z"/>
	<circle class="st0" cx="931" cy="10.7" r="9.7"/>
</g>
<g>
	<path class="st0" d="M961.3,63.9c1.9-0.1,3.3-1.8,3.2-3.7c-0.2-2.8-0.2-5.4-0.2-7.8c0-10.4,1.5-16.3,3-19.3v64.4
		c0,2.9,2.4,5.3,5.3,5.3s5.3-2.4,5.3-5.3V58.8h2v38.7c0,2.9,2.4,5.3,5.3,5.3s5.3-2.4,5.3-5.3V33.3c0.2,0.5,0.5,1.1,0.7,1.8
		c1.3,3.3,2.2,8.9,2.2,17.4c0,2.4-0.1,5-0.2,7.8c-0.1,1.9,1.4,3.5,3.2,3.7c0.1,0,0.1,0,0.2,0c1.8,0,3.3-1.4,3.4-3.2
		c0.2-3,0.2-5.7,0.2-8.2c0-12.9-2.1-20.1-4.9-24.4c-1.5-2.2-3-3.5-4.6-4.3c-1.5-0.7-2.7-0.9-3.4-0.9c-0.1,0-0.1,0-0.2,0h-16.7
		c-0.1,0-0.1,0-0.2,0c-0.7,0-2.1,0.2-3.4,0.9c-2.3,1.1-4.8,3.7-6.6,8c-1.8,4.5-2.9,10.9-2.9,20.7c0,2.5,0.1,5.2,0.2,8.2
		c0.1,1.8,1.7,3.2,3.4,3.2C961.1,63.9,961.2,63.9,961.3,63.9z"/>
	<circle class="st0" cx="978.8" cy="10.7" r="9.7"/>
</g>
<g>
	<path class="st0" d="M1009,63.9c1.9-0.1,3.3-1.8,3.2-3.7c-0.2-2.8-0.2-5.4-0.2-7.8c0-10.4,1.5-16.3,3-19.3v64.4
		c0,2.9,2.4,5.3,5.3,5.3c2.9,0,5.3-2.4,5.3-5.3V58.8h2v38.7c0,2.9,2.4,5.3,5.3,5.3c2.9,0,5.3-2.4,5.3-5.3V33.3
		c0.2,0.5,0.5,1.1,0.7,1.8c1.3,3.3,2.2,8.9,2.2,17.4c0,2.4-0.1,5-0.2,7.8c-0.1,1.9,1.4,3.5,3.2,3.7c0.1,0,0.1,0,0.2,0
		c1.8,0,3.3-1.4,3.4-3.2c0.2-3,0.2-5.7,0.2-8.2c0-12.9-2.1-20.1-4.9-24.4c-1.5-2.2-3-3.5-4.6-4.3c-1.5-0.7-2.7-0.9-3.4-0.9
		c-0.1,0-0.1,0-0.2,0h-16.6c-0.1,0-0.1,0-0.2,0c-0.7,0-2.1,0.2-3.4,0.9c-2.3,1.1-4.8,3.7-6.6,8c-1.8,4.5-2.9,10.9-2.9,20.7
		c0,2.5,0.1,5.2,0.2,8.2c0.1,1.8,1.7,3.2,3.4,3.2C1008.9,63.9,1009,63.9,1009,63.9z"/>
	<circle class="st0" cx="1026.6" cy="10.7" r="9.7"/>
</g>
<g>
	<path class="st0" d="M1056.8,63.9c1.9-0.1,3.3-1.8,3.2-3.7c-0.2-2.8-0.2-5.4-0.2-7.8c0-10.4,1.5-16.3,3-19.3v64.4
		c0,2.9,2.4,5.3,5.3,5.3c2.9,0,5.3-2.4,5.3-5.3V58.8h2v38.7c0,2.9,2.4,5.3,5.3,5.3c2.9,0,5.3-2.4,5.3-5.3V33.3
		c0.2,0.5,0.5,1.1,0.7,1.8c1.3,3.3,2.2,8.9,2.2,17.4c0,2.4-0.1,5-0.2,7.8c-0.1,1.9,1.4,3.5,3.2,3.7c0.1,0,0.1,0,0.2,0
		c1.8,0,3.3-1.4,3.4-3.2c0.2-3,0.2-5.7,0.2-8.2c0-12.9-2.1-20.1-4.9-24.4c-1.5-2.2-3-3.5-4.6-4.3c-1.5-0.7-2.7-0.9-3.4-0.9
		c-0.1,0-0.1,0-0.2,0h-16.6c-0.1,0-0.1,0-0.2,0c-0.7,0-2.1,0.2-3.4,0.9c-2.3,1.1-4.8,3.7-6.6,8c-1.8,4.5-2.9,10.9-2.9,20.7
		c0,2.5,0.1,5.2,0.2,8.2c0.1,1.8,1.7,3.2,3.4,3.2C1056.7,63.9,1056.8,63.9,1056.8,63.9z"/>
	<circle class="st0" cx="1074.4" cy="10.7" r="9.7"/>
</g>
<g>
	<path class="st0" d="M1104.6,63.9c1.9-0.1,3.3-1.8,3.2-3.7c-0.2-2.8-0.2-5.4-0.2-7.8c0-10.4,1.5-16.3,3-19.3v64.4
		c0,2.9,2.4,5.3,5.3,5.3c2.9,0,5.3-2.4,5.3-5.3V58.8h2v38.7c0,2.9,2.4,5.3,5.3,5.3c2.9,0,5.3-2.4,5.3-5.3V33.3
		c0.2,0.5,0.5,1.1,0.7,1.8c1.3,3.3,2.2,8.9,2.2,17.4c0,2.4-0.1,5-0.2,7.8c-0.1,1.9,1.4,3.5,3.2,3.7c0.1,0,0.1,0,0.2,0
		c1.8,0,3.3-1.4,3.4-3.2c0.2-3,0.2-5.7,0.2-8.2c0-12.9-2.1-20.1-4.9-24.4c-1.5-2.2-3-3.5-4.6-4.3c-1.5-0.7-2.7-0.9-3.4-0.9
		c-0.1,0-0.1,0-0.2,0H1114c-0.1,0-0.1,0-0.2,0c-0.7,0-2.1,0.2-3.4,0.9c-2.3,1.1-4.8,3.7-6.6,8c-1.8,4.5-2.9,10.9-2.9,20.7
		c0,2.5,0.1,5.2,0.2,8.2c0.1,1.8,1.7,3.2,3.4,3.2C1104.5,63.9,1104.5,63.9,1104.6,63.9z"/>
	<circle class="st0" cx="1122.2" cy="10.7" r="9.7"/>
</g>
<g>
	<path class="st0" d="M1152.4,63.9c1.9-0.1,3.3-1.8,3.2-3.7c-0.2-2.8-0.2-5.4-0.2-7.8c0-10.4,1.5-16.3,3-19.3v64.4
		c0,2.9,2.4,5.3,5.3,5.3c2.9,0,5.3-2.4,5.3-5.3V58.8h2v38.7c0,2.9,2.4,5.3,5.3,5.3c2.9,0,5.3-2.4,5.3-5.3V33.3
		c0.2,0.5,0.5,1.1,0.7,1.8c1.3,3.3,2.2,8.9,2.2,17.4c0,2.4-0.1,5-0.2,7.8c-0.1,1.9,1.4,3.5,3.2,3.7c0.1,0,0.1,0,0.2,0
		c1.8,0,3.3-1.4,3.4-3.2c0.2-3,0.2-5.7,0.2-8.2c0-12.9-2.1-20.1-4.9-24.4c-1.5-2.2-3-3.5-4.6-4.3c-1.5-0.7-2.7-0.9-3.4-0.9
		c-0.1,0-0.1,0-0.2,0h-16.6c-0.1,0-0.1,0-0.2,0c-0.7,0-2.1,0.2-3.4,0.9c-2.3,1.1-4.8,3.7-6.6,8c-1.8,4.5-2.9,10.9-2.9,20.7
		c0,2.5,0.1,5.2,0.2,8.2c0.1,1.8,1.7,3.2,3.4,3.2C1152.3,63.9,1152.3,63.9,1152.4,63.9z"/>
	<circle class="st0" cx="1169.9" cy="10.7" r="9.7"/>
</g>
<g>
	<path class="st0" d="M1200.2,63.9c1.9-0.1,3.3-1.8,3.2-3.7c-0.2-2.8-0.2-5.4-0.2-7.8c0-10.4,1.5-16.3,3-19.3v64.4
		c0,2.9,2.4,5.3,5.3,5.3c2.9,0,5.3-2.4,5.3-5.3V58.8h2v38.7c0,2.9,2.4,5.3,5.3,5.3c2.9,0,5.3-2.4,5.3-5.3V33.3
		c0.2,0.5,0.5,1.1,0.7,1.8c1.3,3.3,2.2,8.9,2.2,17.4c0,2.4-0.1,5-0.2,7.8c-0.1,1.9,1.4,3.5,3.2,3.7c0.1,0,0.1,0,0.2,0
		c1.8,0,3.3-1.4,3.4-3.2c0.2-3,0.2-5.7,0.2-8.2c0-12.9-2.1-20.1-4.9-24.4c-1.5-2.2-3-3.5-4.6-4.3c-1.5-0.7-2.7-0.9-3.4-0.9
		c-0.1,0-0.1,0-0.2,0h-16.6c-0.1,0-0.1,0-0.2,0c-0.7,0-2.1,0.2-3.4,0.9c-2.3,1.1-4.8,3.7-6.6,8c-1.8,4.5-2.9,10.9-2.9,20.7
		c0,2.5,0.1,5.2,0.2,8.2c0.1,1.8,1.7,3.2,3.4,3.2C1200.1,63.9,1200.1,63.9,1200.2,63.9z"/>
	<circle class="st0" cx="1217.7" cy="10.7" r="9.7"/>
</g>
<g>
	<path class="st0" d="M1248,63.9c1.9-0.1,3.3-1.8,3.2-3.7c-0.2-2.8-0.2-5.4-0.2-7.8c0-10.4,1.5-16.3,3-19.3v64.4
		c0,2.9,2.4,5.3,5.3,5.3c2.9,0,5.3-2.4,5.3-5.3V58.8h2v38.7c0,2.9,2.4,5.3,5.3,5.3c2.9,0,5.3-2.4,5.3-5.3V33.3
		c0.2,0.5,0.5,1.1,0.7,1.8c1.3,3.3,2.2,8.9,2.2,17.4c0,2.4-0.1,5-0.2,7.8c-0.1,1.9,1.4,3.5,3.2,3.7c0.1,0,0.1,0,0.2,0
		c1.8,0,3.3-1.4,3.4-3.2c0.2-3,0.2-5.7,0.2-8.2c0-12.9-2.1-20.1-4.9-24.4c-1.5-2.2-3-3.5-4.6-4.3c-1.5-0.7-2.7-0.9-3.4-0.9
		c-0.1,0-0.1,0-0.2,0h-16.6c-0.1,0-0.1,0-0.2,0c-0.7,0-2.1,0.2-3.4,0.9c-2.3,1.1-4.8,3.7-6.6,8c-1.8,4.5-2.9,10.9-2.9,20.7
		c0,2.5,0.1,5.2,0.2,8.2c0.1,1.8,1.7,3.2,3.4,3.2C1247.8,63.9,1247.9,63.9,1248,63.9z"/>
	<circle class="st0" cx="1265.5" cy="10.7" r="9.7"/>
</g>
<g>
	<path class="st0" d="M1295.8,63.9c1.9-0.1,3.3-1.8,3.2-3.7c-0.2-2.8-0.2-5.4-0.2-7.8c0-10.4,1.5-16.3,3-19.3v64.4
		c0,2.9,2.4,5.3,5.3,5.3c2.9,0,5.3-2.4,5.3-5.3V58.8h2v38.7c0,2.9,2.4,5.3,5.3,5.3c2.9,0,5.3-2.4,5.3-5.3V33.3
		c0.2,0.5,0.5,1.1,0.7,1.8c1.3,3.3,2.2,8.9,2.2,17.4c0,2.4-0.1,5-0.2,7.8c-0.1,1.9,1.4,3.5,3.2,3.7c0.1,0,0.1,0,0.2,0
		c1.8,0,3.3-1.4,3.4-3.2c0.2-3,0.2-5.7,0.2-8.2c0-12.9-2.1-20.1-4.9-24.4c-1.5-2.2-3-3.5-4.6-4.3c-1.5-0.7-2.7-0.9-3.4-0.9
		c-0.1,0-0.1,0-0.2,0h-16.6c-0.1,0-0.1,0-0.2,0c-0.7,0-2.1,0.2-3.4,0.9c-2.3,1.1-4.8,3.7-6.6,8c-1.8,4.5-2.9,10.9-2.9,20.7
		c0,2.5,0.1,5.2,0.2,8.2c0.1,1.8,1.7,3.2,3.4,3.2C1295.6,63.9,1295.7,63.9,1295.8,63.9z"/>
	<circle class="st0" cx="1313.3" cy="10.7" r="9.7"/>
</g>
<g>
	<path class="st0" d="M1343.5,63.9c1.9-0.1,3.3-1.8,3.2-3.7c-0.2-2.8-0.2-5.4-0.2-7.8c0-10.4,1.5-16.3,3-19.3v64.4
		c0,2.9,2.4,5.3,5.3,5.3s5.3-2.4,5.3-5.3V58.8h2v38.7c0,2.9,2.4,5.3,5.3,5.3c2.9,0,5.3-2.4,5.3-5.3V33.3c0.2,0.5,0.5,1.1,0.7,1.8
		c1.3,3.3,2.2,8.9,2.2,17.4c0,2.4-0.1,5-0.2,7.8c-0.1,1.9,1.4,3.5,3.2,3.7c0.1,0,0.1,0,0.2,0c1.8,0,3.3-1.4,3.4-3.2
		c0.2-3,0.2-5.7,0.2-8.2c0-12.9-2.1-20.1-4.9-24.4c-1.5-2.2-3-3.5-4.6-4.3c-1.5-0.7-2.7-0.9-3.4-0.9c-0.1,0-0.1,0-0.2,0h-16.6
		c-0.1,0-0.1,0-0.2,0c-0.7,0-2.1,0.2-3.4,0.9c-2.3,1.1-4.8,3.7-6.6,8c-1.8,4.5-2.9,10.9-2.9,20.7c0,2.5,0.1,5.2,0.2,8.2
		c0.1,1.8,1.7,3.2,3.4,3.2C1343.4,63.9,1343.5,63.9,1343.5,63.9z"/>
	<circle class="st0" cx="1361.1" cy="10.7" r="9.7"/>
</g>
<g>
	<path class="st0" d="M1391.3,63.9c1.9-0.1,3.3-1.8,3.2-3.7c-0.2-2.8-0.2-5.4-0.2-7.8c0-10.4,1.5-16.3,3-19.3v64.4
		c0,2.9,2.4,5.3,5.3,5.3s5.3-2.4,5.3-5.3V58.8h2v38.7c0,2.9,2.4,5.3,5.3,5.3s5.3-2.4,5.3-5.3V33.3c0.2,0.5,0.5,1.1,0.7,1.8
		c1.3,3.3,2.2,8.9,2.2,17.4c0,2.4-0.1,5-0.2,7.8c-0.1,1.9,1.4,3.5,3.2,3.7c0.1,0,0.1,0,0.2,0c1.8,0,3.3-1.4,3.4-3.2
		c0.2-3,0.2-5.7,0.2-8.2c0-12.9-2.1-20.1-4.9-24.4c-1.5-2.2-3-3.5-4.6-4.3c-1.5-0.7-2.7-0.9-3.4-0.9c-0.1,0-0.1,0-0.2,0h-16.7
		c-0.1,0-0.1,0-0.2,0c-0.7,0-2.1,0.2-3.4,0.9c-2.3,1.1-4.8,3.7-6.6,8c-1.8,4.5-2.9,10.9-2.9,20.7c0,2.5,0.1,5.2,0.2,8.2
		c0.1,1.8,1.7,3.2,3.4,3.2C1391.2,63.9,1391.3,63.9,1391.3,63.9z"/>
	<circle class="st0" cx="1408.9" cy="10.7" r="9.7"/>
</g>
<g>
	<path class="st0" d="M1439.1,63.9c1.9-0.1,3.3-1.8,3.2-3.7c-0.2-2.8-0.2-5.4-0.2-7.8c0-10.4,1.5-16.3,3-19.3v64.4
		c0,2.9,2.4,5.3,5.3,5.3c2.9,0,5.3-2.4,5.3-5.3V58.8h2v38.7c0,2.9,2.4,5.3,5.3,5.3s5.3-2.4,5.3-5.3V33.3c0.2,0.5,0.5,1.1,0.7,1.8
		c1.3,3.3,2.2,8.9,2.2,17.4c0,2.4-0.1,5-0.2,7.8c-0.1,1.9,1.4,3.5,3.2,3.7c0.1,0,0.1,0,0.2,0c1.8,0,3.3-1.4,3.4-3.2
		c0.2-3,0.2-5.7,0.2-8.2c0-12.9-2.1-20.1-4.9-24.4c-1.5-2.2-3-3.5-4.6-4.3c-1.5-0.7-2.7-0.9-3.4-0.9c-0.1,0-0.1,0-0.2,0h-16.6
		c-0.1,0-0.1,0-0.2,0c-0.7,0-2.1,0.2-3.4,0.9c-2.3,1.1-4.8,3.7-6.6,8c-1.8,4.5-2.9,10.9-2.9,20.7c0,2.5,0.1,5.2,0.2,8.2
		c0.1,1.8,1.7,3.2,3.4,3.2C1439,63.9,1439,63.9,1439.1,63.9z"/>
	<circle class="st0" cx="1456.7" cy="10.7" r="9.7"/>
</g>
<g>
	<path class="st0" d="M31.9,165.8c1.9-0.1,3.3-1.8,3.2-3.7c-0.2-2.8-0.2-5.4-0.2-7.8c0-10.4,1.5-16.3,3-19.3v64.4
		c0,2.9,2.4,5.3,5.3,5.3c2.9,0,5.3-2.4,5.3-5.3v-38.7h2v38.7c0,2.9,2.4,5.3,5.3,5.3s5.3-2.4,5.3-5.3V135c0.2,0.5,0.5,1.1,0.7,1.8
		c1.3,3.3,2.2,8.9,2.2,17.4c0,2.4-0.1,5-0.2,7.8c-0.1,1.9,1.4,3.5,3.2,3.7c0.1,0,0.1,0,0.2,0c1.8,0,3.3-1.4,3.4-3.2
		c0.2-3,0.2-5.7,0.2-8.2c0-12.9-2.1-20.1-4.9-24.4c-1.5-2.2-3-3.5-4.6-4.3c-1.5-0.7-2.7-0.9-3.4-0.9c-0.1,0-0.1,0-0.2,0H41.2
		c-0.1,0-0.1,0-0.2,0c-0.7,0-2.1,0.2-3.4,0.9c-2.3,1.1-4.8,3.7-6.6,8c-1.8,4.5-2.9,10.9-2.9,20.7c0,2.5,0.1,5.2,0.2,8.2
		c0.1,1.8,1.7,3.2,3.4,3.2C31.7,165.8,31.8,165.8,31.9,165.8z"/>
	<circle class="st0" cx="49.4" cy="112.6" r="9.7"/>
</g>
<g>
	<path class="st0" d="M79.7,165.8c1.9-0.1,3.3-1.8,3.2-3.7c-0.2-2.8-0.2-5.4-0.2-7.8c0-10.4,1.5-16.3,3-19.3v64.4
		c0,2.9,2.4,5.3,5.3,5.3c2.9,0,5.3-2.4,5.3-5.3v-38.7h2v38.7c0,2.9,2.4,5.3,5.3,5.3c2.9,0,5.3-2.4,5.3-5.3V135
		c0.2,0.5,0.5,1.1,0.7,1.8c1.3,3.3,2.2,8.9,2.2,17.4c0,2.4-0.1,5-0.2,7.8c-0.1,1.9,1.4,3.5,3.2,3.7c0.1,0,0.1,0,0.2,0
		c1.8,0,3.3-1.4,3.4-3.2c0.2-3,0.2-5.7,0.2-8.2c0-12.9-2.1-20.1-4.9-24.4c-1.5-2.2-3-3.5-4.6-4.3c-1.5-0.7-2.7-0.9-3.4-0.9
		c-0.1,0-0.1,0-0.2,0H89c-0.1,0-0.1,0-0.2,0c-0.7,0-2.1,0.2-3.4,0.9c-2.3,1.1-4.8,3.7-6.6,8c-1.8,4.5-2.9,10.9-2.9,20.7
		c0,2.5,0.1,5.2,0.2,8.2c0.1,1.8,1.7,3.2,3.4,3.2C79.5,165.8,79.6,165.8,79.7,165.8z"/>
	<circle class="st0" cx="97.2" cy="112.6" r="9.7"/>
</g>
<g>
	<path class="st0" d="M127.4,165.8c1.9-0.1,3.3-1.8,3.2-3.7c-0.2-2.8-0.2-5.4-0.2-7.8c0-10.4,1.5-16.3,3-19.3v64.4
		c0,2.9,2.4,5.3,5.3,5.3c2.9,0,5.3-2.4,5.3-5.3v-38.7h2v38.7c0,2.9,2.4,5.3,5.3,5.3c2.9,0,5.3-2.4,5.3-5.3V135
		c0.2,0.5,0.5,1.1,0.7,1.8c1.3,3.3,2.2,8.9,2.2,17.4c0,2.4-0.1,5-0.2,7.8c-0.1,1.9,1.4,3.5,3.2,3.7c0.1,0,0.1,0,0.2,0
		c1.8,0,3.3-1.4,3.4-3.2c0.2-3,0.2-5.7,0.2-8.2c0-12.9-2.1-20.1-4.9-24.4c-1.5-2.2-3-3.5-4.6-4.3c-1.5-0.7-2.7-0.9-3.4-0.9
		c-0.1,0-0.1,0-0.2,0h-16.7c-0.1,0-0.1,0-0.2,0c-0.7,0-2.1,0.2-3.4,0.9c-2.3,1.1-4.8,3.7-6.6,8c-1.8,4.5-2.9,10.9-2.9,20.7
		c0,2.5,0.1,5.2,0.2,8.2c0.1,1.8,1.7,3.2,3.4,3.2C127.3,165.8,127.4,165.8,127.4,165.8z"/>
	<circle class="st0" cx="145" cy="112.6" r="9.7"/>
</g>
<g>
	<path class="st0" d="M175.2,165.8c1.9-0.1,3.3-1.8,3.2-3.7c-0.2-2.8-0.2-5.4-0.2-7.8c0-10.4,1.5-16.3,3-19.3v64.4
		c0,2.9,2.4,5.3,5.3,5.3c2.9,0,5.3-2.4,5.3-5.3v-38.7h2v38.7c0,2.9,2.4,5.3,5.3,5.3c2.9,0,5.3-2.4,5.3-5.3V135
		c0.2,0.5,0.5,1.1,0.7,1.8c1.3,3.3,2.2,8.9,2.2,17.4c0,2.4-0.1,5-0.2,7.8c-0.1,1.9,1.4,3.5,3.2,3.7c0.1,0,0.1,0,0.2,0
		c1.8,0,3.3-1.4,3.4-3.2c0.2-3,0.2-5.7,0.2-8.2c0-12.9-2.1-20.1-4.9-24.4c-1.5-2.2-3-3.5-4.6-4.3c-1.5-0.7-2.7-0.9-3.4-0.9
		c-0.1,0-0.1,0-0.2,0h-16.6c-0.1,0-0.1,0-0.2,0c-0.7,0-2.1,0.2-3.4,0.9c-2.3,1.1-4.8,3.7-6.6,8c-1.8,4.5-2.9,10.9-2.9,20.7
		c0,2.5,0.1,5.2,0.2,8.2c0.1,1.8,1.7,3.2,3.4,3.2C175.1,165.8,175.2,165.8,175.2,165.8z"/>
	<circle class="st0" cx="192.8" cy="112.6" r="9.7"/>
</g>
<g>
	<path class="st0" d="M223,165.8c1.9-0.1,3.3-1.8,3.2-3.7c-0.2-2.8-0.2-5.4-0.2-7.8c0-10.4,1.5-16.3,3-19.3v64.4
		c0,2.9,2.4,5.3,5.3,5.3c2.9,0,5.3-2.4,5.3-5.3v-38.7h2v38.7c0,2.9,2.4,5.3,5.3,5.3c2.9,0,5.3-2.4,5.3-5.3V135
		c0.2,0.5,0.5,1.1,0.7,1.8c1.3,3.3,2.2,8.9,2.2,17.4c0,2.4-0.1,5-0.2,7.8c-0.1,1.9,1.4,3.5,3.2,3.7c0.1,0,0.1,0,0.2,0
		c1.8,0,3.3-1.4,3.4-3.2c0.2-3,0.2-5.7,0.2-8.2c0-12.9-2.1-20.1-4.9-24.4c-1.5-2.2-3-3.5-4.6-4.3c-1.5-0.7-2.7-0.9-3.4-0.9
		c-0.1,0-0.1,0-0.2,0h-16.6c-0.1,0-0.1,0-0.2,0c-0.7,0-2.1,0.2-3.4,0.9c-2.3,1.1-4.8,3.7-6.6,8c-1.8,4.5-2.9,10.9-2.9,20.7
		c0,2.5,0.1,5.2,0.2,8.2c0.1,1.8,1.7,3.2,3.4,3.2C222.9,165.8,222.9,165.8,223,165.8z"/>
	<circle class="st0" cx="240.6" cy="112.6" r="9.7"/>
</g>
<g>
	<path class="st0" d="M270.8,165.8c1.9-0.1,3.3-1.8,3.2-3.7c-0.2-2.8-0.2-5.4-0.2-7.8c0-10.4,1.5-16.3,3-19.3v64.4
		c0,2.9,2.4,5.3,5.3,5.3s5.3-2.4,5.3-5.3v-38.7h2v38.7c0,2.9,2.4,5.3,5.3,5.3c2.9,0,5.3-2.4,5.3-5.3V135c0.2,0.5,0.5,1.1,0.7,1.8
		c1.3,3.3,2.2,8.9,2.2,17.4c0,2.4-0.1,5-0.2,7.8c-0.1,1.9,1.4,3.5,3.2,3.7c0.1,0,0.1,0,0.2,0c1.8,0,3.3-1.4,3.4-3.2
		c0.2-3,0.2-5.7,0.2-8.2c0-12.9-2.1-20.1-4.9-24.4c-1.5-2.2-3-3.5-4.6-4.3c-1.5-0.7-2.7-0.9-3.4-0.9c-0.1,0-0.1,0-0.2,0h-16.6
		c-0.1,0-0.1,0-0.2,0c-0.7,0-2.1,0.2-3.4,0.9c-2.3,1.1-4.8,3.7-6.6,8c-1.8,4.5-2.9,10.9-2.9,20.7c0,2.5,0.1,5.2,0.2,8.2
		c0.1,1.8,1.7,3.2,3.4,3.2C270.7,165.8,270.7,165.8,270.8,165.8z"/>
	<circle class="st0" cx="288.3" cy="112.6" r="9.7"/>
</g>
<g>
	<path class="st0" d="M318.6,165.8c1.9-0.1,3.3-1.8,3.2-3.7c-0.2-2.8-0.2-5.4-0.2-7.8c0-10.4,1.5-16.3,3-19.3v64.4
		c0,2.9,2.4,5.3,5.3,5.3c2.9,0,5.3-2.4,5.3-5.3v-38.7h2v38.7c0,2.9,2.4,5.3,5.3,5.3s5.3-2.4,5.3-5.3V135c0.2,0.5,0.5,1.1,0.7,1.8
		c1.3,3.3,2.2,8.9,2.2,17.4c0,2.4-0.1,5-0.2,7.8c-0.1,1.9,1.4,3.5,3.2,3.7c0.1,0,0.1,0,0.2,0c1.8,0,3.3-1.4,3.4-3.2
		c0.2-3,0.2-5.7,0.2-8.2c0-12.9-2.1-20.1-4.9-24.4c-1.5-2.2-3-3.5-4.6-4.3c-1.5-0.7-2.7-0.9-3.4-0.9c-0.1,0-0.1,0-0.2,0H328
		c-0.1,0-0.1,0-0.2,0c-0.7,0-2.1,0.2-3.4,0.9c-2.3,1.1-4.8,3.7-6.6,8c-1.8,4.5-2.9,10.9-2.9,20.7c0,2.5,0.1,5.2,0.2,8.2
		c0.1,1.8,1.7,3.2,3.4,3.2C318.5,165.8,318.5,165.8,318.6,165.8z"/>
	<circle class="st0" cx="336.1" cy="112.6" r="9.7"/>
</g>
<g>
	<path class="st0" d="M366.4,165.8c1.9-0.1,3.3-1.8,3.2-3.7c-0.2-2.8-0.2-5.4-0.2-7.8c0-10.4,1.5-16.3,3-19.3v64.4
		c0,2.9,2.4,5.3,5.3,5.3c2.9,0,5.3-2.4,5.3-5.3v-38.7h2v38.7c0,2.9,2.4,5.3,5.3,5.3c2.9,0,5.3-2.4,5.3-5.3V135
		c0.2,0.5,0.5,1.1,0.7,1.8c1.3,3.3,2.2,8.9,2.2,17.4c0,2.4-0.1,5-0.2,7.8c-0.1,1.9,1.4,3.5,3.2,3.7c0.1,0,0.1,0,0.2,0
		c1.8,0,3.3-1.4,3.4-3.2c0.2-3,0.2-5.7,0.2-8.2c0-12.9-2.1-20.1-4.9-24.4c-1.5-2.2-3-3.5-4.6-4.3c-1.5-0.7-2.7-0.9-3.4-0.9
		c-0.1,0-0.1,0-0.2,0h-16.7c-0.1,0-0.1,0-0.2,0c-0.7,0-2.1,0.2-3.4,0.9c-2.3,1.1-4.8,3.7-6.6,8c-1.8,4.5-2.9,10.9-2.9,20.7
		c0,2.5,0.1,5.2,0.2,8.2c0.1,1.8,1.7,3.2,3.4,3.2C366.2,165.8,366.3,165.8,366.4,165.8z"/>
	<circle class="st0" cx="383.9" cy="112.6" r="9.7"/>
</g>
<g>
	<path class="st0" d="M414.2,165.8c1.9-0.1,3.3-1.8,3.2-3.7c-0.2-2.8-0.2-5.4-0.2-7.8c0-10.4,1.5-16.3,3-19.3v64.4
		c0,2.9,2.4,5.3,5.3,5.3c2.9,0,5.3-2.4,5.3-5.3v-38.7h2v38.7c0,2.9,2.4,5.3,5.3,5.3c2.9,0,5.3-2.4,5.3-5.3V135
		c0.2,0.5,0.5,1.1,0.7,1.8c1.3,3.3,2.2,8.9,2.2,17.4c0,2.4-0.1,5-0.2,7.8c-0.1,1.9,1.4,3.5,3.2,3.7c0.1,0,0.1,0,0.2,0
		c1.8,0,3.3-1.4,3.4-3.2c0.2-3,0.2-5.7,0.2-8.2c0-12.9-2.1-20.1-4.9-24.4c-1.5-2.2-3-3.5-4.6-4.3c-1.5-0.7-2.7-0.9-3.4-0.9
		c-0.1,0-0.1,0-0.2,0h-16.6c-0.1,0-0.1,0-0.2,0c-0.7,0-2.1,0.2-3.4,0.9c-2.3,1.1-4.8,3.7-6.6,8c-1.8,4.5-2.9,10.9-2.9,20.7
		c0,2.5,0.1,5.2,0.2,8.2c0.1,1.8,1.7,3.2,3.4,3.2C414,165.8,414.1,165.8,414.2,165.8z"/>
	<circle class="st0" cx="431.7" cy="112.6" r="9.7"/>
</g>
<g>
	<path class="st0" d="M461.9,165.8c1.9-0.1,3.3-1.8,3.2-3.7c-0.2-2.8-0.2-5.4-0.2-7.8c0-10.4,1.5-16.3,3-19.3v64.4
		c0,2.9,2.4,5.3,5.3,5.3s5.3-2.4,5.3-5.3v-38.7h2v38.7c0,2.9,2.4,5.3,5.3,5.3c2.9,0,5.3-2.4,5.3-5.3V135c0.2,0.5,0.5,1.1,0.7,1.8
		c1.3,3.3,2.2,8.9,2.2,17.4c0,2.4-0.1,5-0.2,7.8c-0.1,1.9,1.4,3.5,3.2,3.7c0.1,0,0.1,0,0.2,0c1.8,0,3.3-1.4,3.4-3.2
		c0.2-3,0.2-5.7,0.2-8.2c0-12.9-2.1-20.1-4.9-24.4c-1.5-2.2-3-3.5-4.6-4.3c-1.5-0.7-2.7-0.9-3.4-0.9c-0.1,0-0.1,0-0.2,0h-16.6
		c-0.1,0-0.1,0-0.2,0c-0.7,0-2.1,0.2-3.4,0.9c-2.3,1.1-4.8,3.7-6.6,8c-1.8,4.5-2.9,10.9-2.9,20.7c0,2.5,0.1,5.2,0.2,8.2
		c0.1,1.8,1.7,3.2,3.4,3.2C461.8,165.8,461.9,165.8,461.9,165.8z"/>
	<circle class="st0" cx="479.5" cy="112.6" r="9.7"/>
</g>
<g>
	<path class="st0" d="M509.7,165.8c1.9-0.1,3.3-1.8,3.2-3.7c-0.2-2.8-0.2-5.4-0.2-7.8c0-10.4,1.5-16.3,3-19.3v64.4
		c0,2.9,2.4,5.3,5.3,5.3c2.9,0,5.3-2.4,5.3-5.3v-38.7h2v38.7c0,2.9,2.4,5.3,5.3,5.3s5.3-2.4,5.3-5.3V135c0.2,0.5,0.5,1.1,0.7,1.8
		c1.3,3.3,2.2,8.9,2.2,17.4c0,2.4-0.1,5-0.2,7.8c-0.1,1.9,1.4,3.5,3.2,3.7c0.1,0,0.1,0,0.2,0c1.8,0,3.3-1.4,3.4-3.2
		c0.2-3,0.2-5.7,0.2-8.2c0-12.9-2.1-20.1-4.9-24.4c-1.5-2.2-3-3.5-4.6-4.3c-1.5-0.7-2.7-0.9-3.4-0.9c-0.1,0-0.1,0-0.2,0h-16.6
		c-0.1,0-0.1,0-0.2,0c-0.7,0-2.1,0.2-3.4,0.9c-2.3,1.1-4.8,3.7-6.6,8c-1.8,4.5-2.9,10.9-2.9,20.7c0,2.5,0.1,5.2,0.2,8.2
		c0.1,1.8,1.7,3.2,3.4,3.2C509.6,165.8,509.7,165.8,509.7,165.8z"/>
	<circle class="st0" cx="527.3" cy="112.6" r="9.7"/>
</g>
<g>
	<path class="st0" d="M557.5,165.8c1.9-0.1,3.3-1.8,3.2-3.7c-0.2-2.8-0.2-5.4-0.2-7.8c0-10.4,1.5-16.3,3-19.3v64.4
		c0,2.9,2.4,5.3,5.3,5.3s5.3-2.4,5.3-5.3v-38.7h2v38.7c0,2.9,2.4,5.3,5.3,5.3c2.9,0,5.3-2.4,5.3-5.3V135c0.2,0.5,0.5,1.1,0.7,1.8
		c1.3,3.3,2.2,8.9,2.2,17.4c0,2.4-0.1,5-0.2,7.8c-0.1,1.9,1.4,3.5,3.2,3.7c0.1,0,0.1,0,0.2,0c1.8,0,3.3-1.4,3.4-3.2
		c0.2-3,0.2-5.7,0.2-8.2c0-12.9-2.1-20.1-4.9-24.4c-1.5-2.2-3-3.5-4.6-4.3c-1.5-0.7-2.7-0.9-3.4-0.9c-0.1,0-0.1,0-0.2,0h-16.6
		c-0.1,0-0.1,0-0.2,0c-0.7,0-2.1,0.2-3.4,0.9c-2.3,1.1-4.8,3.7-6.6,8c-1.8,4.5-2.9,10.9-2.9,20.7c0,2.5,0.1,5.2,0.2,8.2
		c0.1,1.8,1.7,3.2,3.4,3.2C557.4,165.8,557.4,165.8,557.5,165.8z"/>
	<circle class="st0" cx="575.1" cy="112.6" r="9.7"/>
</g>
<g>
	<path class="st0" d="M605.3,165.8c1.9-0.1,3.3-1.8,3.2-3.7c-0.2-2.8-0.2-5.4-0.2-7.8c0-10.4,1.5-16.3,3-19.3v64.4
		c0,2.9,2.4,5.3,5.3,5.3s5.3-2.4,5.3-5.3v-38.7h2v38.7c0,2.9,2.4,5.3,5.3,5.3s5.3-2.4,5.3-5.3V135c0.2,0.5,0.5,1.1,0.7,1.8
		c1.3,3.3,2.2,8.9,2.2,17.4c0,2.4-0.1,5-0.2,7.8c-0.1,1.9,1.4,3.5,3.2,3.7c0.1,0,0.1,0,0.2,0c1.8,0,3.3-1.4,3.4-3.2
		c0.2-3,0.2-5.7,0.2-8.2c0-12.9-2.1-20.1-4.9-24.4c-1.5-2.2-3-3.5-4.6-4.3c-1.5-0.7-2.7-0.9-3.4-0.9c-0.1,0-0.1,0-0.2,0h-16.6
		c-0.1,0-0.1,0-0.2,0c-0.7,0-2.1,0.2-3.4,0.9c-2.3,1.1-4.8,3.7-6.6,8c-1.8,4.5-2.9,10.9-2.9,20.7c0,2.5,0.1,5.2,0.2,8.2
		c0.1,1.8,1.7,3.2,3.4,3.2C605.2,165.8,605.2,165.8,605.3,165.8z"/>
	<circle class="st0" cx="622.8" cy="112.6" r="9.7"/>
</g>
<g>
	<path class="st0" d="M653.1,165.8c1.9-0.1,3.3-1.8,3.2-3.7c-0.2-2.8-0.2-5.4-0.2-7.8c0-10.4,1.5-16.3,3-19.3v64.4
		c0,2.9,2.4,5.3,5.3,5.3c2.9,0,5.3-2.4,5.3-5.3v-38.7h2v38.7c0,2.9,2.4,5.3,5.3,5.3s5.3-2.4,5.3-5.3V135c0.2,0.5,0.5,1.1,0.7,1.8
		c1.3,3.3,2.2,8.9,2.2,17.4c0,2.4-0.1,5-0.2,7.8c-0.1,1.9,1.4,3.5,3.2,3.7c0.1,0,0.1,0,0.2,0c1.8,0,3.3-1.4,3.4-3.2
		c0.2-3,0.2-5.7,0.2-8.2c0-12.9-2.1-20.1-4.9-24.4c-1.5-2.2-3-3.5-4.6-4.3c-1.5-0.7-2.7-0.9-3.4-0.9c-0.1,0-0.1,0-0.2,0h-16.6
		c-0.1,0-0.1,0-0.2,0c-0.7,0-2.1,0.2-3.4,0.9c-2.3,1.1-4.8,3.7-6.6,8c-1.8,4.5-2.9,10.9-2.9,20.7c0,2.5,0.1,5.2,0.2,8.2
		c0.1,1.8,1.7,3.2,3.4,3.2C652.9,165.8,653,165.8,653.1,165.8z"/>
	<circle class="st0" cx="670.6" cy="112.6" r="9.7"/>
</g>
<g>
	<path class="st0" d="M700.9,165.8c1.9-0.1,3.3-1.8,3.2-3.7c-0.2-2.8-0.2-5.4-0.2-7.8c0-10.4,1.5-16.3,3-19.3v64.4
		c0,2.9,2.4,5.3,5.3,5.3c2.9,0,5.3-2.4,5.3-5.3v-38.7h2v38.7c0,2.9,2.4,5.3,5.3,5.3c2.9,0,5.3-2.4,5.3-5.3V135
		c0.2,0.5,0.5,1.1,0.7,1.8c1.3,3.3,2.2,8.9,2.2,17.4c0,2.4-0.1,5-0.2,7.8c-0.1,1.9,1.4,3.5,3.2,3.7c0.1,0,0.1,0,0.2,0
		c1.8,0,3.3-1.4,3.4-3.2c0.2-3,0.2-5.7,0.2-8.2c0-12.9-2.1-20.1-4.9-24.4c-1.5-2.2-3-3.5-4.6-4.3c-1.5-0.7-2.7-0.9-3.4-0.9
		c-0.1,0-0.1,0-0.2,0h-16.6c-0.1,0-0.1,0-0.2,0c-0.7,0-2.1,0.2-3.4,0.9c-2.3,1.1-4.8,3.7-6.6,8c-1.8,4.5-2.9,10.9-2.9,20.7
		c0,2.5,0.1,5.2,0.2,8.2c0.1,1.8,1.7,3.2,3.4,3.2C700.7,165.8,700.8,165.8,700.9,165.8z"/>
	<circle class="st0" cx="718.4" cy="112.6" r="9.7"/>
</g>
<g>
	<path class="st0" d="M748.6,165.8c1.9-0.1,3.3-1.8,3.2-3.7c-0.2-2.8-0.2-5.4-0.2-7.8c0-10.4,1.5-16.3,3-19.3v64.4
		c0,2.9,2.4,5.3,5.3,5.3s5.3-2.4,5.3-5.3v-38.7h2v38.7c0,2.9,2.4,5.3,5.3,5.3c2.9,0,5.3-2.4,5.3-5.3V135c0.2,0.5,0.5,1.1,0.7,1.8
		c1.3,3.3,2.2,8.9,2.2,17.4c0,2.4-0.1,5-0.2,7.8c-0.1,1.9,1.4,3.5,3.2,3.7c0.1,0,0.1,0,0.2,0c1.8,0,3.3-1.4,3.4-3.2
		c0.2-3,0.2-5.7,0.2-8.2c0-12.9-2.1-20.1-4.9-24.4c-1.5-2.2-3-3.5-4.6-4.3c-1.5-0.7-2.7-0.9-3.4-0.9c-0.1,0-0.1,0-0.2,0H758
		c-0.1,0-0.1,0-0.2,0c-0.7,0-2.1,0.2-3.4,0.9c-2.3,1.1-4.8,3.7-6.6,8c-1.8,4.5-2.9,10.9-2.9,20.7c0,2.5,0.1,5.2,0.2,8.2
		c0.1,1.8,1.7,3.2,3.4,3.2C748.5,165.8,748.6,165.8,748.6,165.8z"/>
	<circle class="st0" cx="766.2" cy="112.6" r="9.7"/>
</g>
<g>
	<path class="st0" d="M796.4,165.8c1.9-0.1,3.3-1.8,3.2-3.7c-0.2-2.8-0.2-5.4-0.2-7.8c0-10.4,1.5-16.3,3-19.3v64.4
		c0,2.9,2.4,5.3,5.3,5.3s5.3-2.4,5.3-5.3v-38.7h2v38.7c0,2.9,2.4,5.3,5.3,5.3s5.3-2.4,5.3-5.3V135c0.2,0.5,0.5,1.1,0.7,1.8
		c1.3,3.3,2.2,8.9,2.2,17.4c0,2.4-0.1,5-0.2,7.8c-0.1,1.9,1.4,3.5,3.2,3.7c0.1,0,0.1,0,0.2,0c1.8,0,3.3-1.4,3.4-3.2
		c0.2-3,0.2-5.7,0.2-8.2c0-12.9-2.1-20.1-4.9-24.4c-1.5-2.2-3-3.5-4.6-4.3c-1.5-0.7-2.7-0.9-3.4-0.9c-0.1,0-0.1,0-0.2,0h-16.7
		c-0.1,0-0.1,0-0.2,0c-0.7,0-2.1,0.2-3.4,0.9c-2.3,1.1-4.8,3.7-6.6,8c-1.8,4.5-2.9,10.9-2.9,20.7c0,2.5,0.1,5.2,0.2,8.2
		c0.1,1.8,1.7,3.2,3.4,3.2C796.3,165.8,796.4,165.8,796.4,165.8z"/>
	<circle class="st0" cx="814" cy="112.6" r="9.7"/>
</g>
<g>
	<path class="st0" d="M844.2,165.8c1.9-0.1,3.3-1.8,3.2-3.7c-0.2-2.8-0.2-5.4-0.2-7.8c0-10.4,1.5-16.3,3-19.3v64.4
		c0,2.9,2.4,5.3,5.3,5.3c2.9,0,5.3-2.4,5.3-5.3v-38.7h2v38.7c0,2.9,2.4,5.3,5.3,5.3s5.3-2.4,5.3-5.3V135c0.2,0.5,0.5,1.1,0.7,1.8
		c1.3,3.3,2.2,8.9,2.2,17.4c0,2.4-0.1,5-0.2,7.8c-0.1,1.9,1.4,3.5,3.2,3.7c0.1,0,0.1,0,0.2,0c1.8,0,3.3-1.4,3.4-3.2
		c0.2-3,0.2-5.7,0.2-8.2c0-12.9-2.1-20.1-4.9-24.4c-1.5-2.2-3-3.5-4.6-4.3c-1.5-0.7-2.7-0.9-3.4-0.9c-0.1,0-0.1,0-0.2,0h-16.6
		c-0.1,0-0.1,0-0.2,0c-0.7,0-2.1,0.2-3.4,0.9c-2.3,1.1-4.8,3.7-6.6,8c-1.8,4.5-2.9,10.9-2.9,20.7c0,2.5,0.1,5.2,0.2,8.2
		c0.1,1.8,1.7,3.2,3.4,3.2C844.1,165.8,844.2,165.8,844.2,165.8z"/>
	<circle class="st0" cx="861.8" cy="112.6" r="9.7"/>
</g>
<g>
	<path class="st0" d="M892,165.8c1.9-0.1,3.3-1.8,3.2-3.7c-0.2-2.8-0.2-5.4-0.2-7.8c0-10.4,1.5-16.3,3-19.3v64.4
		c0,2.9,2.4,5.3,5.3,5.3c2.9,0,5.3-2.4,5.3-5.3v-38.7h2v38.7c0,2.9,2.4,5.3,5.3,5.3c2.9,0,5.3-2.4,5.3-5.3V135
		c0.2,0.5,0.5,1.1,0.7,1.8c1.3,3.3,2.2,8.9,2.2,17.4c0,2.4-0.1,5-0.2,7.8c-0.1,1.9,1.4,3.5,3.2,3.7c0.1,0,0.1,0,0.2,0
		c1.8,0,3.3-1.4,3.4-3.2c0.2-3,0.2-5.7,0.2-8.2c0-12.9-2.1-20.1-4.9-24.4c-1.5-2.2-3-3.5-4.6-4.3c-1.5-0.7-2.7-0.9-3.4-0.9
		c-0.1,0-0.1,0-0.2,0h-16.6c-0.1,0-0.1,0-0.2,0c-0.7,0-2.1,0.2-3.4,0.9c-2.3,1.1-4.8,3.7-6.6,8c-1.8,4.5-2.9,10.9-2.9,20.7
		c0,2.5,0.1,5.2,0.2,8.2c0.1,1.8,1.7,3.2,3.4,3.2C891.9,165.8,891.9,165.8,892,165.8z"/>
	<circle class="st0" cx="909.6" cy="112.6" r="9.7"/>
</g>
<g>
	<path class="st0" d="M939.8,165.8c1.9-0.1,3.3-1.8,3.2-3.7c-0.2-2.8-0.2-5.4-0.2-7.8c0-10.4,1.5-16.3,3-19.3v64.4
		c0,2.9,2.4,5.3,5.3,5.3c2.9,0,5.3-2.4,5.3-5.3v-38.7h2v38.7c0,2.9,2.4,5.3,5.3,5.3c2.9,0,5.3-2.4,5.3-5.3V135
		c0.2,0.5,0.5,1.1,0.7,1.8c1.3,3.3,2.2,8.9,2.2,17.4c0,2.4-0.1,5-0.2,7.8c-0.1,1.9,1.4,3.5,3.2,3.7c0.1,0,0.1,0,0.2,0
		c1.8,0,3.3-1.4,3.4-3.2c0.2-3,0.2-5.7,0.2-8.2c0-12.9-2.1-20.1-4.9-24.4c-1.5-2.2-3-3.5-4.6-4.3c-1.5-0.7-2.7-0.9-3.4-0.9
		c-0.1,0-0.1,0-0.2,0h-16.6c-0.1,0-0.1,0-0.2,0c-0.7,0-2.1,0.2-3.4,0.9c-2.3,1.1-4.8,3.7-6.6,8c-1.8,4.5-2.9,10.9-2.9,20.7
		c0,2.5,0.1,5.2,0.2,8.2c0.1,1.8,1.7,3.2,3.4,3.2C939.7,165.8,939.7,165.8,939.8,165.8z"/>
	<circle class="st0" cx="957.3" cy="112.6" r="9.7"/>
</g>
<g>
	<path class="st0" d="M987.6,165.8c1.9-0.1,3.3-1.8,3.2-3.7c-0.2-2.8-0.2-5.4-0.2-7.8c0-10.4,1.5-16.3,3-19.3v64.4
		c0,2.9,2.4,5.3,5.3,5.3c2.9,0,5.3-2.4,5.3-5.3v-38.7h2v38.7c0,2.9,2.4,5.3,5.3,5.3c2.9,0,5.3-2.4,5.3-5.3V135
		c0.2,0.5,0.5,1.1,0.7,1.8c1.3,3.3,2.2,8.9,2.2,17.4c0,2.4-0.1,5-0.2,7.8c-0.1,1.9,1.4,3.5,3.2,3.7c0.1,0,0.1,0,0.2,0
		c1.8,0,3.3-1.4,3.4-3.2c0.2-3,0.2-5.7,0.2-8.2c0-12.9-2.1-20.1-4.9-24.4c-1.5-2.2-3-3.5-4.6-4.3c-1.5-0.7-2.7-0.9-3.4-0.9
		c-0.1,0-0.1,0-0.2,0H997c-0.1,0-0.1,0-0.2,0c-0.7,0-2.1,0.2-3.4,0.9c-2.3,1.1-4.8,3.7-6.6,8c-1.8,4.5-2.9,10.9-2.9,20.7
		c0,2.5,0.1,5.2,0.2,8.2c0.1,1.8,1.7,3.2,3.4,3.2C987.4,165.8,987.5,165.8,987.6,165.8z"/>
	<circle class="st0" cx="1005.1" cy="112.6" r="9.7"/>
</g>
<g>
	<path class="st0" d="M1035.4,165.8c1.9-0.1,3.3-1.8,3.2-3.7c-0.2-2.8-0.2-5.4-0.2-7.8c0-10.4,1.5-16.3,3-19.3v64.4
		c0,2.9,2.4,5.3,5.3,5.3s5.3-2.4,5.3-5.3v-38.7h2v38.7c0,2.9,2.4,5.3,5.3,5.3c2.9,0,5.3-2.4,5.3-5.3V135c0.2,0.5,0.5,1.1,0.7,1.8
		c1.3,3.3,2.2,8.9,2.2,17.4c0,2.4-0.1,5-0.2,7.8c-0.1,1.9,1.4,3.5,3.2,3.7c0.1,0,0.1,0,0.2,0c1.8,0,3.3-1.4,3.4-3.2
		c0.2-3,0.2-5.7,0.2-8.2c0-12.9-2.1-20.1-4.9-24.4c-1.5-2.2-3-3.5-4.6-4.3c-1.5-0.7-2.7-0.9-3.4-0.9c-0.1,0-0.1,0-0.2,0h-16.7
		c-0.1,0-0.1,0-0.2,0c-0.7,0-2.1,0.2-3.4,0.9c-2.3,1.1-4.8,3.7-6.6,8c-1.8,4.5-2.9,10.9-2.9,20.7c0,2.5,0.1,5.2,0.2,8.2
		c0.1,1.8,1.7,3.2,3.4,3.2C1035.2,165.8,1035.3,165.8,1035.4,165.8z"/>
	<circle class="st0" cx="1052.9" cy="112.6" r="9.7"/>
</g>
<g>
	<path class="st0" d="M1083.1,165.8c1.9-0.1,3.3-1.8,3.2-3.7c-0.2-2.8-0.2-5.4-0.2-7.8c0-10.4,1.5-16.3,3-19.3v64.4
		c0,2.9,2.4,5.3,5.3,5.3c2.9,0,5.3-2.4,5.3-5.3v-38.7h2v38.7c0,2.9,2.4,5.3,5.3,5.3s5.3-2.4,5.3-5.3V135c0.2,0.5,0.5,1.1,0.7,1.8
		c1.3,3.3,2.2,8.9,2.2,17.4c0,2.4-0.1,5-0.2,7.8c-0.1,1.9,1.4,3.5,3.2,3.7c0.1,0,0.1,0,0.2,0c1.8,0,3.3-1.4,3.4-3.2
		c0.2-3,0.2-5.7,0.2-8.2c0-12.9-2.1-20.1-4.9-24.4c-1.5-2.2-3-3.5-4.6-4.3c-1.5-0.7-2.7-0.9-3.4-0.9c-0.1,0-0.1,0-0.2,0h-16.6
		c-0.1,0-0.1,0-0.2,0c-0.7,0-2.1,0.2-3.4,0.9c-2.3,1.1-4.8,3.7-6.6,8c-1.8,4.5-2.9,10.9-2.9,20.7c0,2.5,0.1,5.2,0.2,8.2
		c0.1,1.8,1.7,3.2,3.4,3.2C1083,165.8,1083.1,165.8,1083.1,165.8z"/>
	<circle class="st0" cx="1100.7" cy="112.6" r="9.7"/>
</g>
<g>
	<path class="st0" d="M1130.9,165.8c1.9-0.1,3.3-1.8,3.2-3.7c-0.2-2.8-0.2-5.4-0.2-7.8c0-10.4,1.5-16.3,3-19.3v64.4
		c0,2.9,2.4,5.3,5.3,5.3c2.9,0,5.3-2.4,5.3-5.3v-38.7h2v38.7c0,2.9,2.4,5.3,5.3,5.3c2.9,0,5.3-2.4,5.3-5.3V135
		c0.2,0.5,0.5,1.1,0.7,1.8c1.3,3.3,2.2,8.9,2.2,17.4c0,2.4-0.1,5-0.2,7.8c-0.1,1.9,1.4,3.5,3.2,3.7c0.1,0,0.1,0,0.2,0
		c1.8,0,3.3-1.4,3.4-3.2c0.2-3,0.2-5.7,0.2-8.2c0-12.9-2.1-20.1-4.9-24.4c-1.5-2.2-3-3.5-4.6-4.3c-1.5-0.7-2.7-0.9-3.4-0.9
		c-0.1,0-0.1,0-0.2,0h-16.6c-0.1,0-0.1,0-0.2,0c-0.7,0-2.1,0.2-3.4,0.9c-2.3,1.1-4.8,3.7-6.6,8c-1.8,4.5-2.9,10.9-2.9,20.7
		c0,2.5,0.1,5.2,0.2,8.2c0.1,1.8,1.7,3.2,3.4,3.2C1130.8,165.8,1130.9,165.8,1130.9,165.8z"/>
	<circle class="st0" cx="1148.5" cy="112.6" r="9.7"/>
</g>
<g>
	<path class="st0" d="M1178.7,165.8c1.9-0.1,3.3-1.8,3.2-3.7c-0.2-2.8-0.2-5.4-0.2-7.8c0-10.4,1.5-16.3,3-19.3v64.4
		c0,2.9,2.4,5.3,5.3,5.3c2.9,0,5.3-2.4,5.3-5.3v-38.7h2v38.7c0,2.9,2.4,5.3,5.3,5.3c2.9,0,5.3-2.4,5.3-5.3V135
		c0.2,0.5,0.5,1.1,0.7,1.8c1.3,3.3,2.2,8.9,2.2,17.4c0,2.4-0.1,5-0.2,7.8c-0.1,1.9,1.4,3.5,3.2,3.7c0.1,0,0.1,0,0.2,0
		c1.8,0,3.3-1.4,3.4-3.2c0.2-3,0.2-5.7,0.2-8.2c0-12.9-2.1-20.1-4.9-24.4c-1.5-2.2-3-3.5-4.6-4.3c-1.5-0.7-2.7-0.9-3.4-0.9
		c-0.1,0-0.1,0-0.2,0h-16.6c-0.1,0-0.1,0-0.2,0c-0.7,0-2.1,0.2-3.4,0.9c-2.3,1.1-4.8,3.7-6.6,8c-1.8,4.5-2.9,10.9-2.9,20.7
		c0,2.5,0.1,5.2,0.2,8.2c0.1,1.8,1.7,3.2,3.4,3.2C1178.6,165.8,1178.6,165.8,1178.7,165.8z"/>
	<circle class="st0" cx="1196.3" cy="112.6" r="9.7"/>
</g>
<g>
	<path class="st0" d="M1226.5,165.8c1.9-0.1,3.3-1.8,3.2-3.7c-0.2-2.8-0.2-5.4-0.2-7.8c0-10.4,1.5-16.3,3-19.3v64.4
		c0,2.9,2.4,5.3,5.3,5.3c2.9,0,5.3-2.4,5.3-5.3v-38.7h2v38.7c0,2.9,2.4,5.3,5.3,5.3c2.9,0,5.3-2.4,5.3-5.3V135
		c0.2,0.5,0.5,1.1,0.7,1.8c1.3,3.3,2.2,8.9,2.2,17.4c0,2.4-0.1,5-0.2,7.8c-0.1,1.9,1.4,3.5,3.2,3.7c0.1,0,0.1,0,0.2,0
		c1.8,0,3.3-1.4,3.4-3.2c0.2-3,0.2-5.7,0.2-8.2c0-12.9-2.1-20.1-4.9-24.4c-1.5-2.2-3-3.5-4.6-4.3c-1.5-0.7-2.7-0.9-3.4-0.9
		c-0.1,0-0.1,0-0.2,0h-16.6c-0.1,0-0.1,0-0.2,0c-0.7,0-2.1,0.2-3.4,0.9c-2.3,1.1-4.8,3.7-6.6,8c-1.8,4.5-2.9,10.9-2.9,20.7
		c0,2.5,0.1,5.2,0.2,8.2c0.1,1.8,1.7,3.2,3.4,3.2C1226.4,165.8,1226.4,165.8,1226.5,165.8z"/>
	<circle class="st0" cx="1244" cy="112.6" r="9.7"/>
</g>
<g>
	<path class="st0" d="M1274.3,165.8c1.9-0.1,3.3-1.8,3.2-3.7c-0.2-2.8-0.2-5.4-0.2-7.8c0-10.4,1.5-16.3,3-19.3v64.4
		c0,2.9,2.4,5.3,5.3,5.3c2.9,0,5.3-2.4,5.3-5.3v-38.7h2v38.7c0,2.9,2.4,5.3,5.3,5.3c2.9,0,5.3-2.4,5.3-5.3V135
		c0.2,0.5,0.5,1.1,0.7,1.8c1.3,3.3,2.2,8.9,2.2,17.4c0,2.4-0.1,5-0.2,7.8c-0.1,1.9,1.4,3.5,3.2,3.7c0.1,0,0.1,0,0.2,0
		c1.8,0,3.3-1.4,3.4-3.2c0.2-3,0.2-5.7,0.2-8.2c0-12.9-2.1-20.1-4.9-24.4c-1.5-2.2-3-3.5-4.6-4.3c-1.5-0.7-2.7-0.9-3.4-0.9
		c-0.1,0-0.1,0-0.2,0h-16.6c-0.1,0-0.1,0-0.2,0c-0.7,0-2.1,0.2-3.4,0.9c-2.3,1.1-4.8,3.7-6.6,8c-1.8,4.5-2.9,10.9-2.9,20.7
		c0,2.5,0.1,5.2,0.2,8.2c0.1,1.8,1.7,3.2,3.4,3.2C1274.2,165.8,1274.2,165.8,1274.3,165.8z"/>
	<circle class="st0" cx="1291.8" cy="112.6" r="9.7"/>
</g>
<g>
	<path class="st0" d="M1322.1,165.8c1.9-0.1,3.3-1.8,3.2-3.7c-0.2-2.8-0.2-5.4-0.2-7.8c0-10.4,1.5-16.3,3-19.3v64.4
		c0,2.9,2.4,5.3,5.3,5.3c2.9,0,5.3-2.4,5.3-5.3v-38.7h2v38.7c0,2.9,2.4,5.3,5.3,5.3c2.9,0,5.3-2.4,5.3-5.3V135
		c0.2,0.5,0.5,1.1,0.7,1.8c1.3,3.3,2.2,8.9,2.2,17.4c0,2.4-0.1,5-0.2,7.8c-0.1,1.9,1.4,3.5,3.2,3.7c0.1,0,0.1,0,0.2,0
		c1.8,0,3.3-1.4,3.4-3.2c0.2-3,0.2-5.7,0.2-8.2c0-12.9-2.1-20.1-4.9-24.4c-1.5-2.2-3-3.5-4.6-4.3c-1.5-0.7-2.7-0.9-3.4-0.9
		c-0.1,0-0.1,0-0.2,0h-16.6c-0.1,0-0.1,0-0.2,0c-0.7,0-2.1,0.2-3.4,0.9c-2.3,1.1-4.8,3.7-6.6,8c-1.8,4.5-2.9,10.9-2.9,20.7
		c0,2.5,0.1,5.2,0.2,8.2c0.1,1.8,1.7,3.2,3.4,3.2C1321.9,165.8,1322,165.8,1322.1,165.8z"/>
	<circle class="st0" cx="1339.6" cy="112.6" r="9.7"/>
</g>
<g>
	<path class="st0" d="M1369.9,165.8c1.9-0.1,3.3-1.8,3.2-3.7c-0.2-2.8-0.2-5.4-0.2-7.8c0-10.4,1.5-16.3,3-19.3v64.4
		c0,2.9,2.4,5.3,5.3,5.3c2.9,0,5.3-2.4,5.3-5.3v-38.7h2v38.7c0,2.9,2.4,5.3,5.3,5.3c2.9,0,5.3-2.4,5.3-5.3V135
		c0.2,0.5,0.5,1.1,0.7,1.8c1.3,3.3,2.2,8.9,2.2,17.4c0,2.4-0.1,5-0.2,7.8c-0.1,1.9,1.4,3.5,3.2,3.7c0.1,0,0.1,0,0.2,0
		c1.8,0,3.3-1.4,3.4-3.2c0.2-3,0.2-5.7,0.2-8.2c0-12.9-2.1-20.1-4.9-24.4c-1.5-2.2-3-3.5-4.6-4.3c-1.5-0.7-2.7-0.9-3.4-0.9
		c-0.1,0-0.1,0-0.2,0h-16.6c-0.1,0-0.1,0-0.2,0c-0.7,0-2.1,0.2-3.4,0.9c-2.3,1.1-4.8,3.7-6.6,8c-1.8,4.5-2.9,10.9-2.9,20.7
		c0,2.5,0.1,5.2,0.2,8.2c0.1,1.8,1.7,3.2,3.4,3.2C1369.7,165.8,1369.8,165.8,1369.9,165.8z"/>
	<circle class="st0" cx="1387.4" cy="112.6" r="9.7"/>
</g>
<g>
	<path class="st0" d="M1417.6,165.8c1.9-0.1,3.3-1.8,3.2-3.7c-0.2-2.8-0.2-5.4-0.2-7.8c0-10.4,1.5-16.3,3-19.3v64.4
		c0,2.9,2.4,5.3,5.3,5.3c2.9,0,5.3-2.4,5.3-5.3v-38.7h2v38.7c0,2.9,2.4,5.3,5.3,5.3c2.9,0,5.3-2.4,5.3-5.3V135
		c0.2,0.5,0.5,1.1,0.7,1.8c1.3,3.3,2.2,8.9,2.2,17.4c0,2.4-0.1,5-0.2,7.8c-0.1,1.9,1.4,3.5,3.2,3.7c0.1,0,0.1,0,0.2,0
		c1.8,0,3.3-1.4,3.4-3.2c0.2-3,0.2-5.7,0.2-8.2c0-12.9-2.1-20.1-4.9-24.4c-1.5-2.2-3-3.5-4.6-4.3c-1.5-0.7-2.7-0.9-3.4-0.9
		c-0.1,0-0.1,0-0.2,0H1427c-0.1,0-0.1,0-0.2,0c-0.7,0-2.1,0.2-3.4,0.9c-2.3,1.1-4.8,3.7-6.6,8c-1.8,4.5-2.9,10.9-2.9,20.7
		c0,2.5,0.1,5.2,0.2,8.2c0.1,1.8,1.7,3.2,3.4,3.2C1417.5,165.8,1417.6,165.8,1417.6,165.8z"/>
	<circle class="st0" cx="1435.2" cy="112.6" r="9.7"/>
</g>
<g>
	<path class="st0" d="M5.5,267.4c1.9-0.1,3.3-1.8,3.2-3.7c-0.2-2.8-0.2-5.4-0.2-7.8c0-10.4,1.5-16.3,3-19.3V301
		c0,2.9,2.4,5.3,5.3,5.3s5.3-2.4,5.3-5.3v-38.7h2V301c0,2.9,2.4,5.3,5.3,5.3s5.3-2.4,5.3-5.3v-64.4c0.2,0.5,0.5,1.1,0.7,1.8
		c1.3,3.3,2.2,8.9,2.2,17.4c0,2.4-0.1,5-0.2,7.8c-0.1,1.9,1.4,3.5,3.2,3.7c0.1,0,0.1,0,0.2,0c1.8,0,3.3-1.4,3.4-3.2
		c0.2-3,0.2-5.7,0.2-8.2c0-12.9-2.1-20.1-4.9-24.4c-1.5-2.2-3-3.5-4.6-4.3c-1.5-0.7-2.7-0.9-3.4-0.9c-0.1,0-0.1,0-0.2,0H14.8
		c-0.1,0-0.1,0-0.2,0c-0.7,0-2.1,0.2-3.4,0.9c-2.3,1.1-4.8,3.7-6.6,8c-1.8,4.5-2.9,10.9-2.9,20.7c0,2.5,0.1,5.2,0.2,8.2
		c0.1,1.8,1.7,3.2,3.4,3.2C5.3,267.4,5.4,267.4,5.5,267.4z"/>
	<circle class="st0" cx="23" cy="214.1" r="9.7"/>
</g>
<g>
	<path class="st0" d="M53.3,267.4c1.9-0.1,3.3-1.8,3.2-3.7c-0.2-2.8-0.2-5.4-0.2-7.8c0-10.4,1.5-16.3,3-19.3V301
		c0,2.9,2.4,5.3,5.3,5.3c2.9,0,5.3-2.4,5.3-5.3v-38.7h2V301c0,2.9,2.4,5.3,5.3,5.3c2.9,0,5.3-2.4,5.3-5.3v-64.4
		c0.2,0.5,0.5,1.1,0.7,1.8c1.3,3.3,2.2,8.9,2.2,17.4c0,2.4-0.1,5-0.2,7.8c-0.1,1.9,1.4,3.5,3.2,3.7c0.1,0,0.1,0,0.2,0
		c1.8,0,3.3-1.4,3.4-3.2c0.2-3,0.2-5.7,0.2-8.2c0-12.9-2.1-20.1-4.9-24.4c-1.5-2.2-3-3.5-4.6-4.3c-1.5-0.7-2.7-0.9-3.4-0.9
		c-0.1,0-0.1,0-0.2,0H62.6c-0.1,0-0.1,0-0.2,0c-0.7,0-2.1,0.2-3.4,0.9c-2.3,1.1-4.8,3.7-6.6,8c-1.8,4.5-2.9,10.9-2.9,20.7
		c0,2.5,0.1,5.2,0.2,8.2c0.1,1.8,1.7,3.2,3.4,3.2C53.1,267.4,53.2,267.4,53.3,267.4z"/>
	<circle class="st0" cx="70.8" cy="214.1" r="9.7"/>
</g>
<g>
	<path class="st0" d="M101,267.4c1.9-0.1,3.3-1.8,3.2-3.7c-0.2-2.8-0.2-5.4-0.2-7.8c0-10.4,1.5-16.3,3-19.3V301
		c0,2.9,2.4,5.3,5.3,5.3c2.9,0,5.3-2.4,5.3-5.3v-38.7h2V301c0,2.9,2.4,5.3,5.3,5.3c2.9,0,5.3-2.4,5.3-5.3v-64.4
		c0.2,0.5,0.5,1.1,0.7,1.8c1.3,3.3,2.2,8.9,2.2,17.4c0,2.4-0.1,5-0.2,7.8c-0.1,1.9,1.4,3.5,3.2,3.7c0.1,0,0.1,0,0.2,0
		c1.8,0,3.3-1.4,3.4-3.2c0.2-3,0.2-5.7,0.2-8.2c0-12.9-2.1-20.1-4.9-24.4c-1.5-2.2-3-3.5-4.6-4.3c-1.5-0.7-2.7-0.9-3.4-0.9
		c-0.1,0-0.1,0-0.2,0h-16.6c-0.1,0-0.1,0-0.2,0c-0.7,0-2.1,0.2-3.4,0.9c-2.3,1.1-4.8,3.7-6.6,8c-1.8,4.5-2.9,10.9-2.9,20.7
		c0,2.5,0.1,5.2,0.2,8.2c0.1,1.8,1.7,3.2,3.4,3.2C100.9,267.4,101,267.4,101,267.4z"/>
	<circle class="st0" cx="118.6" cy="214.1" r="9.7"/>
</g>
<g>
	<path class="st0" d="M148.8,267.4c1.9-0.1,3.3-1.8,3.2-3.7c-0.2-2.8-0.2-5.4-0.2-7.8c0-10.4,1.5-16.3,3-19.3V301
		c0,2.9,2.4,5.3,5.3,5.3c2.9,0,5.3-2.4,5.3-5.3v-38.7h2V301c0,2.9,2.4,5.3,5.3,5.3c2.9,0,5.3-2.4,5.3-5.3v-64.4
		c0.2,0.5,0.5,1.1,0.7,1.8c1.3,3.3,2.2,8.9,2.2,17.4c0,2.4-0.1,5-0.2,7.8c-0.1,1.9,1.4,3.5,3.2,3.7c0.1,0,0.1,0,0.2,0
		c1.8,0,3.3-1.4,3.4-3.2c0.2-3,0.2-5.7,0.2-8.2c0-12.9-2.1-20.1-4.9-24.4c-1.5-2.2-3-3.5-4.6-4.3c-1.5-0.7-2.7-0.9-3.4-0.9
		c-0.1,0-0.1,0-0.2,0h-16.6c-0.1,0-0.1,0-0.2,0c-0.7,0-2.1,0.2-3.4,0.9c-2.3,1.1-4.8,3.7-6.6,8c-1.8,4.5-2.9,10.9-2.9,20.7
		c0,2.5,0.1,5.2,0.2,8.2c0.1,1.8,1.7,3.2,3.4,3.2C148.7,267.4,148.8,267.4,148.8,267.4z"/>
	<circle class="st0" cx="166.4" cy="214.1" r="9.7"/>
</g>
<g>
	<path class="st0" d="M196.6,267.4c1.9-0.1,3.3-1.8,3.2-3.7c-0.2-2.8-0.2-5.4-0.2-7.8c0-10.4,1.5-16.3,3-19.3V301
		c0,2.9,2.4,5.3,5.3,5.3c2.9,0,5.3-2.4,5.3-5.3v-38.7h2V301c0,2.9,2.4,5.3,5.3,5.3c2.9,0,5.3-2.4,5.3-5.3v-64.4
		c0.2,0.5,0.5,1.1,0.7,1.8c1.3,3.3,2.2,8.9,2.2,17.4c0,2.4-0.1,5-0.2,7.8c-0.1,1.9,1.4,3.5,3.2,3.7c0.1,0,0.1,0,0.2,0
		c1.8,0,3.3-1.4,3.4-3.2c0.2-3,0.2-5.7,0.2-8.2c0-12.9-2.1-20.1-4.9-24.4c-1.5-2.2-3-3.5-4.6-4.3c-1.5-0.7-2.7-0.9-3.4-0.9
		c-0.1,0-0.1,0-0.2,0H206c-0.1,0-0.1,0-0.2,0c-0.7,0-2.1,0.2-3.4,0.9c-2.3,1.1-4.8,3.7-6.6,8c-1.8,4.5-2.9,10.9-2.9,20.7
		c0,2.5,0.1,5.2,0.2,8.2c0.1,1.8,1.7,3.2,3.4,3.2C196.5,267.4,196.5,267.4,196.6,267.4z"/>
	<circle class="st0" cx="214.2" cy="214.1" r="9.7"/>
</g>
<g>
	<path class="st0" d="M244.4,267.4c1.9-0.1,3.3-1.8,3.2-3.7c-0.2-2.8-0.2-5.4-0.2-7.8c0-10.4,1.5-16.3,3-19.3V301
		c0,2.9,2.4,5.3,5.3,5.3c2.9,0,5.3-2.4,5.3-5.3v-38.7h2V301c0,2.9,2.4,5.3,5.3,5.3s5.3-2.4,5.3-5.3v-64.4c0.2,0.5,0.5,1.1,0.7,1.8
		c1.3,3.3,2.2,8.9,2.2,17.4c0,2.4-0.1,5-0.2,7.8c-0.1,1.9,1.4,3.5,3.2,3.7c0.1,0,0.1,0,0.2,0c1.8,0,3.3-1.4,3.4-3.2
		c0.2-3,0.2-5.7,0.2-8.2c0-12.9-2.1-20.1-4.9-24.4c-1.5-2.2-3-3.5-4.6-4.3c-1.5-0.7-2.7-0.9-3.4-0.9c-0.1,0-0.1,0-0.2,0h-16.6
		c-0.1,0-0.1,0-0.2,0c-0.7,0-2.1,0.2-3.4,0.9c-2.3,1.1-4.8,3.7-6.6,8c-1.8,4.5-2.9,10.9-2.9,20.7c0,2.5,0.1,5.2,0.2,8.2
		c0.1,1.8,1.7,3.2,3.4,3.2C244.3,267.4,244.3,267.4,244.4,267.4z"/>
	<circle class="st0" cx="261.9" cy="214.1" r="9.7"/>
</g>
<g>
	<path class="st0" d="M292.2,267.4c1.9-0.1,3.3-1.8,3.2-3.7c-0.2-2.8-0.2-5.4-0.2-7.8c0-10.4,1.5-16.3,3-19.3V301
		c0,2.9,2.4,5.3,5.3,5.3s5.3-2.4,5.3-5.3v-38.7h2V301c0,2.9,2.4,5.3,5.3,5.3c2.9,0,5.3-2.4,5.3-5.3v-64.4c0.2,0.5,0.5,1.1,0.7,1.8
		c1.3,3.3,2.2,8.9,2.2,17.4c0,2.4-0.1,5-0.2,7.8c-0.1,1.9,1.4,3.5,3.2,3.7c0.1,0,0.1,0,0.2,0c1.8,0,3.3-1.4,3.4-3.2
		c0.2-3,0.2-5.7,0.2-8.2c0-12.9-2.1-20.1-4.9-24.4c-1.5-2.2-3-3.5-4.6-4.3c-1.5-0.7-2.7-0.9-3.4-0.9c-0.1,0-0.1,0-0.2,0h-16.6
		c-0.1,0-0.1,0-0.2,0c-0.7,0-2.1,0.2-3.4,0.9c-2.3,1.1-4.8,3.7-6.6,8c-1.8,4.5-2.9,10.9-2.9,20.7c0,2.5,0.1,5.2,0.2,8.2
		c0.1,1.8,1.7,3.2,3.4,3.2C292,267.4,292.1,267.4,292.2,267.4z"/>
	<circle class="st0" cx="309.7" cy="214.1" r="9.7"/>
</g>
<g>
	<path class="st0" d="M340,267.4c1.9-0.1,3.3-1.8,3.2-3.7c-0.2-2.8-0.2-5.4-0.2-7.8c0-10.4,1.5-16.3,3-19.3V301
		c0,2.9,2.4,5.3,5.3,5.3c2.9,0,5.3-2.4,5.3-5.3v-38.7h2V301c0,2.9,2.4,5.3,5.3,5.3s5.3-2.4,5.3-5.3v-64.4c0.2,0.5,0.5,1.1,0.7,1.8
		c1.3,3.3,2.2,8.9,2.2,17.4c0,2.4-0.1,5-0.2,7.8c-0.1,1.9,1.4,3.5,3.2,3.7c0.1,0,0.1,0,0.2,0c1.8,0,3.3-1.4,3.4-3.2
		c0.2-3,0.2-5.7,0.2-8.2c0-12.9-2.1-20.1-4.9-24.4c-1.5-2.2-3-3.5-4.6-4.3c-1.5-0.7-2.7-0.9-3.4-0.9c-0.1,0-0.1,0-0.2,0h-16.6
		c-0.1,0-0.1,0-0.2,0c-0.7,0-2.1,0.2-3.4,0.9c-2.3,1.1-4.8,3.7-6.6,8c-1.8,4.5-2.9,10.9-2.9,20.7c0,2.5,0.1,5.2,0.2,8.2
		c0.1,1.8,1.7,3.2,3.4,3.2C339.8,267.4,339.9,267.4,340,267.4z"/>
	<circle class="st0" cx="357.5" cy="214.1" r="9.7"/>
</g>
<g>
	<path class="st0" d="M387.7,267.4c1.9-0.1,3.3-1.8,3.2-3.7c-0.2-2.8-0.2-5.4-0.2-7.8c0-10.4,1.5-16.3,3-19.3V301
		c0,2.9,2.4,5.3,5.3,5.3c2.9,0,5.3-2.4,5.3-5.3v-38.7h2V301c0,2.9,2.4,5.3,5.3,5.3c2.9,0,5.3-2.4,5.3-5.3v-64.4
		c0.2,0.5,0.5,1.1,0.7,1.8c1.3,3.3,2.2,8.9,2.2,17.4c0,2.4-0.1,5-0.2,7.8c-0.1,1.9,1.4,3.5,3.2,3.7c0.1,0,0.1,0,0.2,0
		c1.8,0,3.3-1.4,3.4-3.2c0.2-3,0.2-5.7,0.2-8.2c0-12.9-2.1-20.1-4.9-24.4c-1.5-2.2-3-3.5-4.6-4.3c-1.5-0.7-2.7-0.9-3.4-0.9
		c-0.1,0-0.1,0-0.2,0h-16.6c-0.1,0-0.1,0-0.2,0c-0.7,0-2.1,0.2-3.4,0.9c-2.3,1.1-4.8,3.7-6.6,8c-1.8,4.5-2.9,10.9-2.9,20.7
		c0,2.5,0.1,5.2,0.2,8.2c0.1,1.8,1.7,3.2,3.4,3.2C387.6,267.4,387.7,267.4,387.7,267.4z"/>
	<circle class="st0" cx="405.3" cy="214.1" r="9.7"/>
</g>
<g>
	<path class="st0" d="M435.5,267.4c1.9-0.1,3.3-1.8,3.2-3.7c-0.2-2.8-0.2-5.4-0.2-7.8c0-10.4,1.5-16.3,3-19.3V301
		c0,2.9,2.4,5.3,5.3,5.3c2.9,0,5.3-2.4,5.3-5.3v-38.7h2V301c0,2.9,2.4,5.3,5.3,5.3c2.9,0,5.3-2.4,5.3-5.3v-64.4
		c0.2,0.5,0.5,1.1,0.7,1.8c1.3,3.3,2.2,8.9,2.2,17.4c0,2.4-0.1,5-0.2,7.8c-0.1,1.9,1.4,3.5,3.2,3.7c0.1,0,0.1,0,0.2,0
		c1.8,0,3.3-1.4,3.4-3.2c0.2-3,0.2-5.7,0.2-8.2c0-12.9-2.1-20.1-4.9-24.4c-1.5-2.2-3-3.5-4.6-4.3c-1.5-0.7-2.7-0.9-3.4-0.9
		c-0.1,0-0.1,0-0.2,0h-16.6c-0.1,0-0.1,0-0.2,0c-0.7,0-2.1,0.2-3.4,0.9c-2.3,1.1-4.8,3.7-6.6,8c-1.8,4.5-2.9,10.9-2.9,20.7
		c0,2.5,0.1,5.2,0.2,8.2c0.1,1.8,1.7,3.2,3.4,3.2C435.4,267.4,435.5,267.4,435.5,267.4z"/>
	<circle class="st0" cx="453.1" cy="214.1" r="9.7"/>
</g>
<g>
	<path class="st0" d="M483.3,267.4c1.9-0.1,3.3-1.8,3.2-3.7c-0.2-2.8-0.2-5.4-0.2-7.8c0-10.4,1.5-16.3,3-19.3V301
		c0,2.9,2.4,5.3,5.3,5.3s5.3-2.4,5.3-5.3v-38.7h2V301c0,2.9,2.4,5.3,5.3,5.3c2.9,0,5.3-2.4,5.3-5.3v-64.4c0.2,0.5,0.5,1.1,0.7,1.8
		c1.3,3.3,2.2,8.9,2.2,17.4c0,2.4-0.1,5-0.2,7.8c-0.1,1.9,1.4,3.5,3.2,3.7c0.1,0,0.1,0,0.2,0c1.8,0,3.3-1.4,3.4-3.2
		c0.2-3,0.2-5.7,0.2-8.2c0-12.9-2.1-20.1-4.9-24.4c-1.5-2.2-3-3.5-4.6-4.3c-1.5-0.7-2.7-0.9-3.4-0.9c-0.1,0-0.1,0-0.2,0h-16.7
		c-0.1,0-0.1,0-0.2,0c-0.7,0-2.1,0.2-3.4,0.9c-2.3,1.1-4.8,3.7-6.6,8c-1.8,4.5-2.9,10.9-2.9,20.7c0,2.5,0.1,5.2,0.2,8.2
		c0.1,1.8,1.7,3.2,3.4,3.2C483.2,267.4,483.3,267.4,483.3,267.4z"/>
	<circle class="st0" cx="500.9" cy="214.1" r="9.7"/>
</g>
<g>
	<path class="st0" d="M531.1,267.4c1.9-0.1,3.3-1.8,3.2-3.7c-0.2-2.8-0.2-5.4-0.2-7.8c0-10.4,1.5-16.3,3-19.3V301
		c0,2.9,2.4,5.3,5.3,5.3c2.9,0,5.3-2.4,5.3-5.3v-38.7h2V301c0,2.9,2.4,5.3,5.3,5.3c2.9,0,5.3-2.4,5.3-5.3v-64.4
		c0.2,0.5,0.5,1.1,0.7,1.8c1.3,3.3,2.2,8.9,2.2,17.4c0,2.4-0.1,5-0.2,7.8c-0.1,1.9,1.4,3.5,3.2,3.7c0.1,0,0.1,0,0.2,0
		c1.8,0,3.3-1.4,3.4-3.2c0.2-3,0.2-5.7,0.2-8.2c0-12.9-2.1-20.1-4.9-24.4c-1.5-2.2-3-3.5-4.6-4.3c-1.5-0.7-2.7-0.9-3.4-0.9
		c-0.1,0-0.1,0-0.2,0h-16.6c-0.1,0-0.1,0-0.2,0c-0.7,0-2.1,0.2-3.4,0.9c-2.3,1.1-4.8,3.7-6.6,8c-1.8,4.5-2.9,10.9-2.9,20.7
		c0,2.5,0.1,5.2,0.2,8.2c0.1,1.8,1.7,3.2,3.4,3.2C531,267.4,531,267.4,531.1,267.4z"/>
	<circle class="st0" cx="548.6" cy="214.1" r="9.7"/>
</g>
<g>
	<path class="st0" d="M578.9,267.4c1.9-0.1,3.3-1.8,3.2-3.7c-0.2-2.8-0.2-5.4-0.2-7.8c0-10.4,1.5-16.3,3-19.3V301
		c0,2.9,2.4,5.3,5.3,5.3s5.3-2.4,5.3-5.3v-38.7h2V301c0,2.9,2.4,5.3,5.3,5.3c2.9,0,5.3-2.4,5.3-5.3v-64.4c0.2,0.5,0.5,1.1,0.7,1.8
		c1.3,3.3,2.2,8.9,2.2,17.4c0,2.4-0.1,5-0.2,7.8c-0.1,1.9,1.4,3.5,3.2,3.7c0.1,0,0.1,0,0.2,0c1.8,0,3.3-1.4,3.4-3.2
		c0.2-3,0.2-5.7,0.2-8.2c0-12.9-2.1-20.1-4.9-24.4c-1.5-2.2-3-3.5-4.6-4.3c-1.5-0.7-2.7-0.9-3.4-0.9c-0.1,0-0.1,0-0.2,0h-16.6
		c-0.1,0-0.1,0-0.2,0c-0.7,0-2.1,0.2-3.4,0.9c-2.3,1.1-4.8,3.7-6.6,8c-1.8,4.5-2.9,10.9-2.9,20.7c0,2.5,0.1,5.2,0.2,8.2
		c0.1,1.8,1.7,3.2,3.4,3.2C578.8,267.4,578.8,267.4,578.9,267.4z"/>
	<circle class="st0" cx="596.4" cy="214.1" r="9.7"/>
</g>
<g>
	<path class="st0" d="M626.7,267.4c1.9-0.1,3.3-1.8,3.2-3.7c-0.2-2.8-0.2-5.4-0.2-7.8c0-10.4,1.5-16.3,3-19.3V301
		c0,2.9,2.4,5.3,5.3,5.3c2.9,0,5.3-2.4,5.3-5.3v-38.7h2V301c0,2.9,2.4,5.3,5.3,5.3s5.3-2.4,5.3-5.3v-64.4c0.2,0.5,0.5,1.1,0.7,1.8
		c1.3,3.3,2.2,8.9,2.2,17.4c0,2.4-0.1,5-0.2,7.8c-0.1,1.9,1.4,3.5,3.2,3.7c0.1,0,0.1,0,0.2,0c1.8,0,3.3-1.4,3.4-3.2
		c0.2-3,0.2-5.7,0.2-8.2c0-12.9-2.1-20.1-4.9-24.4c-1.5-2.2-3-3.5-4.6-4.3c-1.5-0.7-2.7-0.9-3.4-0.9c-0.1,0-0.1,0-0.2,0h-16.6
		c-0.1,0-0.1,0-0.2,0c-0.7,0-2.1,0.2-3.4,0.9c-2.3,1.1-4.8,3.7-6.6,8c-1.8,4.5-2.9,10.9-2.9,20.7c0,2.5,0.1,5.2,0.2,8.2
		c0.1,1.8,1.7,3.2,3.4,3.2C626.5,267.4,626.6,267.4,626.7,267.4z"/>
	<circle class="st0" cx="644.2" cy="214.1" r="9.7"/>
</g>
<g>
	<path class="st0" d="M674.5,267.4c1.9-0.1,3.3-1.8,3.2-3.7c-0.2-2.8-0.2-5.4-0.2-7.8c0-10.4,1.5-16.3,3-19.3V301
		c0,2.9,2.4,5.3,5.3,5.3c2.9,0,5.3-2.4,5.3-5.3v-38.7h2V301c0,2.9,2.4,5.3,5.3,5.3s5.3-2.4,5.3-5.3v-64.4c0.2,0.5,0.5,1.1,0.7,1.8
		c1.3,3.3,2.2,8.9,2.2,17.4c0,2.4-0.1,5-0.2,7.8c-0.1,1.9,1.4,3.5,3.2,3.7c0.1,0,0.1,0,0.2,0c1.8,0,3.3-1.4,3.4-3.2
		c0.2-3,0.2-5.7,0.2-8.2c0-12.9-2.1-20.1-4.9-24.4c-1.5-2.2-3-3.5-4.6-4.3c-1.5-0.7-2.7-0.9-3.4-0.9c-0.1,0-0.1,0-0.2,0h-16.6
		c-0.1,0-0.1,0-0.2,0c-0.7,0-2.1,0.2-3.4,0.9c-2.3,1.1-4.8,3.7-6.6,8c-1.8,4.5-2.9,10.9-2.9,20.7c0,2.5,0.1,5.2,0.2,8.2
		c0.1,1.8,1.7,3.2,3.4,3.2C674.3,267.4,674.4,267.4,674.5,267.4z"/>
	<circle class="st0" cx="692" cy="214.1" r="9.7"/>
</g>
<g>
	<path class="st0" d="M722.2,267.4c1.9-0.1,3.3-1.8,3.2-3.7c-0.2-2.8-0.2-5.4-0.2-7.8c0-10.4,1.5-16.3,3-19.3V301
		c0,2.9,2.4,5.3,5.3,5.3c2.9,0,5.3-2.4,5.3-5.3v-38.7h2V301c0,2.9,2.4,5.3,5.3,5.3c2.9,0,5.3-2.4,5.3-5.3v-64.4
		c0.2,0.5,0.5,1.1,0.7,1.8c1.3,3.3,2.2,8.9,2.2,17.4c0,2.4-0.1,5-0.2,7.8c-0.1,1.9,1.4,3.5,3.2,3.7c0.1,0,0.1,0,0.2,0
		c1.8,0,3.3-1.4,3.4-3.2c0.2-3,0.2-5.7,0.2-8.2c0-12.9-2.1-20.1-4.9-24.4c-1.5-2.2-3-3.5-4.6-4.3c-1.5-0.7-2.7-0.9-3.4-0.9
		c-0.1,0-0.1,0-0.2,0h-16.6c-0.1,0-0.1,0-0.2,0c-0.7,0-2.1,0.2-3.4,0.9c-2.3,1.1-4.8,3.7-6.6,8c-1.8,4.5-2.9,10.9-2.9,20.7
		c0,2.5,0.1,5.2,0.2,8.2c0.1,1.8,1.7,3.2,3.4,3.2C722.1,267.4,722.2,267.4,722.2,267.4z"/>
	<circle class="st0" cx="739.8" cy="214.1" r="9.7"/>
</g>
<g>
	<path class="st0" d="M770,267.4c1.9-0.1,3.3-1.8,3.2-3.7c-0.2-2.8-0.2-5.4-0.2-7.8c0-10.4,1.5-16.3,3-19.3V301
		c0,2.9,2.4,5.3,5.3,5.3s5.3-2.4,5.3-5.3v-38.7h2V301c0,2.9,2.4,5.3,5.3,5.3c2.9,0,5.3-2.4,5.3-5.3v-64.4c0.2,0.5,0.5,1.1,0.7,1.8
		c1.3,3.3,2.2,8.9,2.2,17.4c0,2.4-0.1,5-0.2,7.8c-0.1,1.9,1.4,3.5,3.2,3.7c0.1,0,0.1,0,0.2,0c1.8,0,3.3-1.4,3.4-3.2
		c0.2-3,0.2-5.7,0.2-8.2c0-12.9-2.1-20.1-4.9-24.4c-1.5-2.2-3-3.5-4.6-4.3c-1.5-0.7-2.7-0.9-3.4-0.9c-0.1,0-0.1,0-0.2,0h-16.6
		c-0.1,0-0.1,0-0.2,0c-0.7,0-2.1,0.2-3.4,0.9c-2.3,1.1-4.8,3.7-6.6,8c-1.8,4.5-2.9,10.9-2.9,20.7c0,2.5,0.1,5.2,0.2,8.2
		c0.1,1.8,1.7,3.2,3.4,3.2C769.9,267.4,770,267.4,770,267.4z"/>
	<circle class="st0" cx="787.6" cy="214.1" r="9.7"/>
</g>
<g>
	<path class="st0" d="M817.8,267.4c1.9-0.1,3.3-1.8,3.2-3.7c-0.2-2.8-0.2-5.4-0.2-7.8c0-10.4,1.5-16.3,3-19.3V301
		c0,2.9,2.4,5.3,5.3,5.3s5.3-2.4,5.3-5.3v-38.7h2V301c0,2.9,2.4,5.3,5.3,5.3s5.3-2.4,5.3-5.3v-64.4c0.2,0.5,0.5,1.1,0.7,1.8
		c1.3,3.3,2.2,8.9,2.2,17.4c0,2.4-0.1,5-0.2,7.8c-0.1,1.9,1.4,3.5,3.2,3.7c0.1,0,0.1,0,0.2,0c1.8,0,3.3-1.4,3.4-3.2
		c0.2-3,0.2-5.7,0.2-8.2c0-12.9-2.1-20.1-4.9-24.4c-1.5-2.2-3-3.5-4.6-4.3c-1.5-0.7-2.7-0.9-3.4-0.9c-0.1,0-0.1,0-0.2,0h-16.6
		c-0.1,0-0.1,0-0.2,0c-0.7,0-2.1,0.2-3.4,0.9c-2.3,1.1-4.8,3.7-6.6,8c-1.8,4.5-2.9,10.9-2.9,20.7c0,2.5,0.1,5.2,0.2,8.2
		c0.1,1.8,1.7,3.2,3.4,3.2C817.7,267.4,817.7,267.4,817.8,267.4z"/>
	<circle class="st0" cx="835.4" cy="214.1" r="9.7"/>
</g>
<g>
	<path class="st0" d="M865.6,267.4c1.9-0.1,3.3-1.8,3.2-3.7c-0.2-2.8-0.2-5.4-0.2-7.8c0-10.4,1.5-16.3,3-19.3V301
		c0,2.9,2.4,5.3,5.3,5.3c2.9,0,5.3-2.4,5.3-5.3v-38.7h2V301c0,2.9,2.4,5.3,5.3,5.3s5.3-2.4,5.3-5.3v-64.4c0.2,0.5,0.5,1.1,0.7,1.8
		c1.3,3.3,2.2,8.9,2.2,17.4c0,2.4-0.1,5-0.2,7.8c-0.1,1.9,1.4,3.5,3.2,3.7c0.1,0,0.1,0,0.2,0c1.8,0,3.3-1.4,3.4-3.2
		c0.2-3,0.2-5.7,0.2-8.2c0-12.9-2.1-20.1-4.9-24.4c-1.5-2.2-3-3.5-4.6-4.3c-1.5-0.7-2.7-0.9-3.4-0.9c-0.1,0-0.1,0-0.2,0H875
		c-0.1,0-0.1,0-0.2,0c-0.7,0-2.1,0.2-3.4,0.9c-2.3,1.1-4.8,3.7-6.6,8c-1.8,4.5-2.9,10.9-2.9,20.7c0,2.5,0.1,5.2,0.2,8.2
		c0.1,1.8,1.7,3.2,3.4,3.2C865.5,267.4,865.5,267.4,865.6,267.4z"/>
	<circle class="st0" cx="883.1" cy="214.1" r="9.7"/>
</g>
<g>
	<path class="st0" d="M913.4,267.4c1.9-0.1,3.3-1.8,3.2-3.7c-0.2-2.8-0.2-5.4-0.2-7.8c0-10.4,1.5-16.3,3-19.3V301
		c0,2.9,2.4,5.3,5.3,5.3c2.9,0,5.3-2.4,5.3-5.3v-38.7h2V301c0,2.9,2.4,5.3,5.3,5.3c2.9,0,5.3-2.4,5.3-5.3v-64.4
		c0.2,0.5,0.5,1.1,0.7,1.8c1.3,3.3,2.2,8.9,2.2,17.4c0,2.4-0.1,5-0.2,7.8c-0.1,1.9,1.4,3.5,3.2,3.7c0.1,0,0.1,0,0.2,0
		c1.8,0,3.3-1.4,3.4-3.2c0.2-3,0.2-5.7,0.2-8.2c0-12.9-2.1-20.1-4.9-24.4c-1.5-2.2-3-3.5-4.6-4.3c-1.5-0.7-2.7-0.9-3.4-0.9
		c-0.1,0-0.1,0-0.2,0h-16.6c-0.1,0-0.1,0-0.2,0c-0.7,0-2.1,0.2-3.4,0.9c-2.3,1.1-4.8,3.7-6.6,8c-1.8,4.5-2.9,10.9-2.9,20.7
		c0,2.5,0.1,5.2,0.2,8.2c0.1,1.8,1.7,3.2,3.4,3.2C913.3,267.4,913.3,267.4,913.4,267.4z"/>
	<circle class="st0" cx="930.9" cy="214.1" r="9.7"/>
</g>
<g>
	<path class="st0" d="M961.2,267.4c1.9-0.1,3.3-1.8,3.2-3.7c-0.2-2.8-0.2-5.4-0.2-7.8c0-10.4,1.5-16.3,3-19.3V301
		c0,2.9,2.4,5.3,5.3,5.3c2.9,0,5.3-2.4,5.3-5.3v-38.7h2V301c0,2.9,2.4,5.3,5.3,5.3c2.9,0,5.3-2.4,5.3-5.3v-64.4
		c0.2,0.5,0.5,1.1,0.7,1.8c1.3,3.3,2.2,8.9,2.2,17.4c0,2.4-0.1,5-0.2,7.8c-0.1,1.9,1.4,3.5,3.2,3.7c0.1,0,0.1,0,0.2,0
		c1.8,0,3.3-1.4,3.4-3.2c0.2-3,0.2-5.7,0.2-8.2c0-12.9-2.1-20.1-4.9-24.4c-1.5-2.2-3-3.5-4.6-4.3c-1.5-0.7-2.7-0.9-3.4-0.9
		c-0.1,0-0.1,0-0.2,0h-16.6c-0.1,0-0.1,0-0.2,0c-0.7,0-2.1,0.2-3.4,0.9c-2.3,1.1-4.8,3.7-6.6,8c-1.8,4.5-2.9,10.9-2.9,20.7
		c0,2.5,0.1,5.2,0.2,8.2c0.1,1.8,1.7,3.2,3.4,3.2C961,267.4,961.1,267.4,961.2,267.4z"/>
	<circle class="st0" cx="978.7" cy="214.1" r="9.7"/>
</g>
<g>
	<path class="st0" d="M1009,267.4c1.9-0.1,3.3-1.8,3.2-3.7c-0.2-2.8-0.2-5.4-0.2-7.8c0-10.4,1.5-16.3,3-19.3V301
		c0,2.9,2.4,5.3,5.3,5.3c2.9,0,5.3-2.4,5.3-5.3v-38.7h2V301c0,2.9,2.4,5.3,5.3,5.3c2.9,0,5.3-2.4,5.3-5.3v-64.4
		c0.2,0.5,0.5,1.1,0.7,1.8c1.3,3.3,2.2,8.9,2.2,17.4c0,2.4-0.1,5-0.2,7.8c-0.1,1.9,1.4,3.5,3.2,3.7c0.1,0,0.1,0,0.2,0
		c1.8,0,3.3-1.4,3.4-3.2c0.2-3,0.2-5.7,0.2-8.2c0-12.9-2.1-20.1-4.9-24.4c-1.5-2.2-3-3.5-4.6-4.3c-1.5-0.7-2.7-0.9-3.4-0.9
		c-0.1,0-0.1,0-0.2,0h-16.6c-0.1,0-0.1,0-0.2,0c-0.7,0-2.1,0.2-3.4,0.9c-2.3,1.1-4.8,3.7-6.6,8c-1.8,4.5-2.9,10.9-2.9,20.7
		c0,2.5,0.1,5.2,0.2,8.2c0.1,1.8,1.7,3.2,3.4,3.2C1008.8,267.4,1008.9,267.4,1009,267.4z"/>
	<circle class="st0" cx="1026.5" cy="214.1" r="9.7"/>
</g>
<g>
	<path class="st0" d="M1056.7,267.4c1.9-0.1,3.3-1.8,3.2-3.7c-0.2-2.8-0.2-5.4-0.2-7.8c0-10.4,1.5-16.3,3-19.3V301
		c0,2.9,2.4,5.3,5.3,5.3c2.9,0,5.3-2.4,5.3-5.3v-38.7h2V301c0,2.9,2.4,5.3,5.3,5.3c2.9,0,5.3-2.4,5.3-5.3v-64.4
		c0.2,0.5,0.5,1.1,0.7,1.8c1.3,3.3,2.2,8.9,2.2,17.4c0,2.4-0.1,5-0.2,7.8c-0.1,1.9,1.4,3.5,3.2,3.7c0.1,0,0.1,0,0.2,0
		c1.8,0,3.3-1.4,3.4-3.2c0.2-3,0.2-5.7,0.2-8.2c0-12.9-2.1-20.1-4.9-24.4c-1.5-2.2-3-3.5-4.6-4.3c-1.5-0.7-2.7-0.9-3.4-0.9
		c-0.1,0-0.1,0-0.2,0h-16.6c-0.1,0-0.1,0-0.2,0c-0.7,0-2.1,0.2-3.4,0.9c-2.3,1.1-4.8,3.7-6.6,8c-1.8,4.5-2.9,10.9-2.9,20.7
		c0,2.5,0.1,5.2,0.2,8.2c0.1,1.8,1.7,3.2,3.4,3.2C1056.6,267.4,1056.7,267.4,1056.7,267.4z"/>
	<circle class="st0" cx="1074.3" cy="214.1" r="9.7"/>
</g>
<g>
	<path class="st0" d="M1104.5,267.4c1.9-0.1,3.3-1.8,3.2-3.7c-0.2-2.8-0.2-5.4-0.2-7.8c0-10.4,1.5-16.3,3-19.3V301
		c0,2.9,2.4,5.3,5.3,5.3c2.9,0,5.3-2.4,5.3-5.3v-38.7h2V301c0,2.9,2.4,5.3,5.3,5.3c2.9,0,5.3-2.4,5.3-5.3v-64.4
		c0.2,0.5,0.5,1.1,0.7,1.8c1.3,3.3,2.2,8.9,2.2,17.4c0,2.4-0.1,5-0.2,7.8c-0.1,1.9,1.4,3.5,3.2,3.7c0.1,0,0.1,0,0.2,0
		c1.8,0,3.3-1.4,3.4-3.2c0.2-3,0.2-5.7,0.2-8.2c0-12.9-2.1-20.1-4.9-24.4c-1.5-2.2-3-3.5-4.6-4.3c-1.5-0.7-2.7-0.9-3.4-0.9
		c-0.1,0-0.1,0-0.2,0h-16.6c-0.1,0-0.1,0-0.2,0c-0.7,0-2.1,0.2-3.4,0.9c-2.3,1.1-4.8,3.7-6.6,8c-1.8,4.5-2.9,10.9-2.9,20.7
		c0,2.5,0.1,5.2,0.2,8.2c0.1,1.8,1.7,3.2,3.4,3.2C1104.4,267.4,1104.5,267.4,1104.5,267.4z"/>
	<circle class="st0" cx="1122.1" cy="214.1" r="9.7"/>
</g>
<g>
	<path class="st0" d="M1152.3,267.4c1.9-0.1,3.3-1.8,3.2-3.7c-0.2-2.8-0.2-5.4-0.2-7.8c0-10.4,1.5-16.3,3-19.3V301
		c0,2.9,2.4,5.3,5.3,5.3c2.9,0,5.3-2.4,5.3-5.3v-38.7h2V301c0,2.9,2.4,5.3,5.3,5.3c2.9,0,5.3-2.4,5.3-5.3v-64.4
		c0.2,0.5,0.5,1.1,0.7,1.8c1.3,3.3,2.2,8.9,2.2,17.4c0,2.4-0.1,5-0.2,7.8c-0.1,1.9,1.4,3.5,3.2,3.7c0.1,0,0.1,0,0.2,0
		c1.8,0,3.3-1.4,3.4-3.2c0.2-3,0.2-5.7,0.2-8.2c0-12.9-2.1-20.1-4.9-24.4c-1.5-2.2-3-3.5-4.6-4.3c-1.5-0.7-2.7-0.9-3.4-0.9
		c-0.1,0-0.1,0-0.2,0h-16.7c-0.1,0-0.1,0-0.2,0c-0.7,0-2.1,0.2-3.4,0.9c-2.3,1.1-4.8,3.7-6.6,8c-1.8,4.5-2.9,10.9-2.9,20.7
		c0,2.5,0.1,5.2,0.2,8.2c0.1,1.8,1.7,3.2,3.4,3.2C1152.2,267.4,1152.2,267.4,1152.3,267.4z"/>
	<circle class="st0" cx="1169.9" cy="214.1" r="9.7"/>
</g>
<g>
	<path class="st0" d="M1200.1,267.4c1.9-0.1,3.3-1.8,3.2-3.7c-0.2-2.8-0.2-5.4-0.2-7.8c0-10.4,1.5-16.3,3-19.3V301
		c0,2.9,2.4,5.3,5.3,5.3c2.9,0,5.3-2.4,5.3-5.3v-38.7h2V301c0,2.9,2.4,5.3,5.3,5.3c2.9,0,5.3-2.4,5.3-5.3v-64.4
		c0.2,0.5,0.5,1.1,0.7,1.8c1.3,3.3,2.2,8.9,2.2,17.4c0,2.4-0.1,5-0.2,7.8c-0.1,1.9,1.4,3.5,3.2,3.7c0.1,0,0.1,0,0.2,0
		c1.8,0,3.3-1.4,3.4-3.2c0.2-3,0.2-5.7,0.2-8.2c0-12.9-2.1-20.1-4.9-24.4c-1.5-2.2-3-3.5-4.6-4.3c-1.5-0.7-2.7-0.9-3.4-0.9
		c-0.1,0-0.1,0-0.2,0h-16.6c-0.1,0-0.1,0-0.2,0c-0.7,0-2.1,0.2-3.4,0.9c-2.3,1.1-4.8,3.7-6.6,8c-1.8,4.5-2.9,10.9-2.9,20.7
		c0,2.5,0.1,5.2,0.2,8.2c0.1,1.8,1.7,3.2,3.4,3.2C1200,267.4,1200,267.4,1200.1,267.4z"/>
	<circle class="st0" cx="1217.6" cy="214.1" r="9.7"/>
</g>
<g>
	<path class="st0" d="M1247.9,267.4c1.9-0.1,3.3-1.8,3.2-3.7c-0.2-2.8-0.2-5.4-0.2-7.8c0-10.4,1.5-16.3,3-19.3V301
		c0,2.9,2.4,5.3,5.3,5.3c2.9,0,5.3-2.4,5.3-5.3v-38.7h2V301c0,2.9,2.4,5.3,5.3,5.3c2.9,0,5.3-2.4,5.3-5.3v-64.4
		c0.2,0.5,0.5,1.1,0.7,1.8c1.3,3.3,2.2,8.9,2.2,17.4c0,2.4-0.1,5-0.2,7.8c-0.1,1.9,1.4,3.5,3.2,3.7c0.1,0,0.1,0,0.2,0
		c1.8,0,3.3-1.4,3.4-3.2c0.2-3,0.2-5.7,0.2-8.2c0-12.9-2.1-20.1-4.9-24.4c-1.5-2.2-3-3.5-4.6-4.3c-1.5-0.7-2.7-0.9-3.4-0.9
		c-0.1,0-0.1,0-0.2,0h-16.6c-0.1,0-0.1,0-0.2,0c-0.7,0-2.1,0.2-3.4,0.9c-2.3,1.1-4.8,3.7-6.6,8c-1.8,4.5-2.9,10.9-2.9,20.7
		c0,2.5,0.1,5.2,0.2,8.2c0.1,1.8,1.7,3.2,3.4,3.2C1247.7,267.4,1247.8,267.4,1247.9,267.4z"/>
	<circle class="st0" cx="1265.4" cy="214.1" r="9.7"/>
</g>
<g>
	<path class="st0" d="M1295.7,267.4c1.9-0.1,3.3-1.8,3.2-3.7c-0.2-2.8-0.2-5.4-0.2-7.8c0-10.4,1.5-16.3,3-19.3V301
		c0,2.9,2.4,5.3,5.3,5.3c2.9,0,5.3-2.4,5.3-5.3v-38.7h2V301c0,2.9,2.4,5.3,5.3,5.3c2.9,0,5.3-2.4,5.3-5.3v-64.4
		c0.2,0.5,0.5,1.1,0.7,1.8c1.3,3.3,2.2,8.9,2.2,17.4c0,2.4-0.1,5-0.2,7.8c-0.1,1.9,1.4,3.5,3.2,3.7c0.1,0,0.1,0,0.2,0
		c1.8,0,3.3-1.4,3.4-3.2c0.2-3,0.2-5.7,0.2-8.2c0-12.9-2.1-20.1-4.9-24.4c-1.5-2.2-3-3.5-4.6-4.3c-1.5-0.7-2.7-0.9-3.4-0.9
		c-0.1,0-0.1,0-0.2,0h-16.6c-0.1,0-0.1,0-0.2,0c-0.7,0-2.1,0.2-3.4,0.9c-2.3,1.1-4.8,3.7-6.6,8c-1.8,4.5-2.9,10.9-2.9,20.7
		c0,2.5,0.1,5.2,0.2,8.2c0.1,1.8,1.7,3.2,3.4,3.2C1295.5,267.4,1295.6,267.4,1295.7,267.4z"/>
	<circle class="st0" cx="1313.2" cy="214.1" r="9.7"/>
</g>
<g>
	<path class="st0" d="M1343.4,267.4c1.9-0.1,3.3-1.8,3.2-3.7c-0.2-2.8-0.2-5.4-0.2-7.8c0-10.4,1.5-16.3,3-19.3V301
		c0,2.9,2.4,5.3,5.3,5.3c2.9,0,5.3-2.4,5.3-5.3v-38.7h2V301c0,2.9,2.4,5.3,5.3,5.3s5.3-2.4,5.3-5.3v-64.4c0.2,0.5,0.5,1.1,0.7,1.8
		c1.3,3.3,2.2,8.9,2.2,17.4c0,2.4-0.1,5-0.2,7.8c-0.1,1.9,1.4,3.5,3.2,3.7c0.1,0,0.1,0,0.2,0c1.8,0,3.3-1.4,3.4-3.2
		c0.2-3,0.2-5.7,0.2-8.2c0-12.9-2.1-20.1-4.9-24.4c-1.5-2.2-3-3.5-4.6-4.3c-1.5-0.7-2.7-0.9-3.4-0.9c-0.1,0-0.1,0-0.2,0h-16.6
		c-0.1,0-0.1,0-0.2,0c-0.7,0-2.1,0.2-3.4,0.9c-2.3,1.1-4.8,3.7-6.6,8c-1.8,4.5-2.9,10.9-2.9,20.7c0,2.5,0.1,5.2,0.2,8.2
		c0.1,1.8,1.7,3.2,3.4,3.2C1343.3,267.4,1343.4,267.4,1343.4,267.4z"/>
	<circle class="st0" cx="1361" cy="214.1" r="9.7"/>
</g>
<g>
	<path class="st0" d="M1391.2,267.4c1.9-0.1,3.3-1.8,3.2-3.7c-0.2-2.8-0.2-5.4-0.2-7.8c0-10.4,1.5-16.3,3-19.3V301
		c0,2.9,2.4,5.3,5.3,5.3c2.9,0,5.3-2.4,5.3-5.3v-38.7h2V301c0,2.9,2.4,5.3,5.3,5.3c2.9,0,5.3-2.4,5.3-5.3v-64.4
		c0.2,0.5,0.5,1.1,0.7,1.8c1.3,3.3,2.2,8.9,2.2,17.4c0,2.4-0.1,5-0.2,7.8c-0.1,1.9,1.4,3.5,3.2,3.7c0.1,0,0.1,0,0.2,0
		c1.8,0,3.3-1.4,3.4-3.2c0.2-3,0.2-5.7,0.2-8.2c0-12.9-2.1-20.1-4.9-24.4c-1.5-2.2-3-3.5-4.6-4.3c-1.5-0.7-2.7-0.9-3.4-0.9
		c-0.1,0-0.1,0-0.2,0h-16.6c-0.1,0-0.1,0-0.2,0c-0.7,0-2.1,0.2-3.4,0.9c-2.3,1.1-4.8,3.7-6.6,8c-1.8,4.5-2.9,10.9-2.9,20.7
		c0,2.5,0.1,5.2,0.2,8.2c0.1,1.8,1.7,3.2,3.4,3.2C1391.1,267.4,1391.2,267.4,1391.2,267.4z"/>
	<circle class="st0" cx="1408.8" cy="214.1" r="9.7"/>
</g>
<g>
	<path class="st0" d="M1439,267.4c1.9-0.1,3.3-1.8,3.2-3.7c-0.2-2.8-0.2-5.4-0.2-7.8c0-10.4,1.5-16.3,3-19.3V301
		c0,2.9,2.4,5.3,5.3,5.3c2.9,0,5.3-2.4,5.3-5.3v-38.7h2V301c0,2.9,2.4,5.3,5.3,5.3c2.9,0,5.3-2.4,5.3-5.3v-64.4
		c0.2,0.5,0.5,1.1,0.7,1.8c1.3,3.3,2.2,8.9,2.2,17.4c0,2.4-0.1,5-0.2,7.8c-0.1,1.9,1.4,3.5,3.2,3.7c0.1,0,0.1,0,0.2,0
		c1.8,0,3.3-1.4,3.4-3.2c0.2-3,0.2-5.7,0.2-8.2c0-12.9-2.1-20.1-4.9-24.4c-1.5-2.2-3-3.5-4.6-4.3c-1.5-0.7-2.7-0.9-3.4-0.9
		c-0.1,0-0.1,0-0.2,0h-16.6c-0.1,0-0.1,0-0.2,0c-0.7,0-2.1,0.2-3.4,0.9c-2.3,1.1-4.8,3.7-6.6,8c-1.8,4.5-2.9,10.9-2.9,20.7
		c0,2.5,0.1,5.2,0.2,8.2c0.1,1.8,1.7,3.2,3.4,3.2C1438.9,267.4,1439,267.4,1439,267.4z"/>
	<circle class="st0" cx="1456.6" cy="214.1" r="9.7"/>
</g>
<g>
	<path class="st0" d="M1486.9,64.3c1.9-0.1,3.3-1.8,3.2-3.7c-0.2-2.8-0.2-5.4-0.2-7.8c0-10.4,1.5-16.3,3-19.3v64.4
		c0,2.9,2.4,5.3,5.3,5.3c2.9,0,5.3-2.4,5.3-5.3V59.2h2v38.7c0,2.9,2.4,5.3,5.3,5.3c2.9,0,5.3-2.4,5.3-5.3V33.6
		c0.2,0.5,0.5,1.1,0.7,1.8c1.3,3.3,2.2,8.9,2.2,17.4c0,2.4-0.1,5-0.2,7.8c-0.1,1.9,1.4,3.5,3.2,3.7c0.1,0,0.1,0,0.2,0
		c1.8,0,3.3-1.4,3.4-3.2c0.2-3,0.2-5.7,0.2-8.2c0-12.9-2.1-20.1-4.9-24.4c-1.5-2.2-3-3.5-4.6-4.3c-1.5-0.7-2.7-0.9-3.4-0.9
		c-0.1,0-0.1,0-0.2,0h-16.6c-0.1,0-0.1,0-0.2,0c-0.7,0-2.1,0.2-3.4,0.9c-2.3,1.1-4.8,3.7-6.6,8c-1.8,4.5-2.9,10.9-2.9,20.7
		c0,2.5,0.1,5.2,0.2,8.2c0.1,1.8,1.7,3.2,3.4,3.2C1486.8,64.3,1486.8,64.3,1486.9,64.3z"/>
	<circle class="st0" cx="1504.4" cy="11.1" r="9.7"/>
</g>
<g>
	<path class="st0" d="M1534.7,64.3c1.9-0.1,3.3-1.8,3.2-3.7c-0.2-2.8-0.2-5.4-0.2-7.8c0-10.4,1.5-16.3,3-19.3v64.4
		c0,2.9,2.4,5.3,5.3,5.3c2.9,0,5.3-2.4,5.3-5.3V59.2h2v38.7c0,2.9,2.4,5.3,5.3,5.3c2.9,0,5.3-2.4,5.3-5.3V33.6
		c0.2,0.5,0.5,1.1,0.7,1.8c1.3,3.3,2.2,8.9,2.2,17.4c0,2.4-0.1,5-0.2,7.8c-0.1,1.9,1.4,3.5,3.2,3.7c0.1,0,0.1,0,0.2,0
		c1.8,0,3.3-1.4,3.4-3.2c0.2-3,0.2-5.7,0.2-8.2c0-12.9-2.1-20.1-4.9-24.4c-1.5-2.2-3-3.5-4.6-4.3c-1.5-0.7-2.7-0.9-3.4-0.9
		c-0.1,0-0.1,0-0.2,0h-16.6c-0.1,0-0.1,0-0.2,0c-0.7,0-2.1,0.2-3.4,0.9c-2.3,1.1-4.8,3.7-6.6,8c-1.8,4.5-2.9,10.9-2.9,20.7
		c0,2.5,0.1,5.2,0.2,8.2c0.1,1.8,1.7,3.2,3.4,3.2C1534.5,64.3,1534.6,64.3,1534.7,64.3z"/>
	<circle class="st0" cx="1552.2" cy="11.1" r="9.7"/>
</g>
<g>
	<path class="st0" d="M1582.5,64.3c1.9-0.1,3.3-1.8,3.2-3.7c-0.2-2.8-0.2-5.4-0.2-7.8c0-10.4,1.5-16.3,3-19.3v64.4
		c0,2.9,2.4,5.3,5.3,5.3c2.9,0,5.3-2.4,5.3-5.3V59.2h2v38.7c0,2.9,2.4,5.3,5.3,5.3c2.9,0,5.3-2.4,5.3-5.3V33.6
		c0.2,0.5,0.5,1.1,0.7,1.8c1.3,3.3,2.2,8.9,2.2,17.4c0,2.4-0.1,5-0.2,7.8c-0.1,1.9,1.4,3.5,3.2,3.7c0.1,0,0.1,0,0.2,0
		c1.8,0,3.3-1.4,3.4-3.2c0.2-3,0.2-5.7,0.2-8.2c0-12.9-2.1-20.1-4.9-24.4c-1.5-2.2-3-3.5-4.6-4.3c-1.5-0.7-2.7-0.9-3.4-0.9
		c-0.1,0-0.1,0-0.2,0h-16.6c-0.1,0-0.1,0-0.2,0c-0.7,0-2.1,0.2-3.4,0.9c-2.3,1.1-4.8,3.7-6.6,8c-1.8,4.5-2.9,10.9-2.9,20.7
		c0,2.5,0.1,5.2,0.2,8.2c0.1,1.8,1.7,3.2,3.4,3.2C1582.3,64.3,1582.4,64.3,1582.5,64.3z"/>
	<circle class="st0" cx="1600" cy="11.1" r="9.7"/>
</g>
<g>
	<path class="st0" d="M1630.2,64.3c1.9-0.1,3.3-1.8,3.2-3.7c-0.2-2.8-0.2-5.4-0.2-7.8c0-10.4,1.5-16.3,3-19.3v64.4
		c0,2.9,2.4,5.3,5.3,5.3c2.9,0,5.3-2.4,5.3-5.3V59.2h2v38.7c0,2.9,2.4,5.3,5.3,5.3c2.9,0,5.3-2.4,5.3-5.3V33.6
		c0.2,0.5,0.5,1.1,0.7,1.8c1.3,3.3,2.2,8.9,2.2,17.4c0,2.4-0.1,5-0.2,7.8c-0.1,1.9,1.4,3.5,3.2,3.7c0.1,0,0.1,0,0.2,0
		c1.8,0,3.3-1.4,3.4-3.2c0.2-3,0.2-5.7,0.2-8.2c0-12.9-2.1-20.1-4.9-24.4c-1.5-2.2-3-3.5-4.6-4.3c-1.5-0.7-2.7-0.9-3.4-0.9
		c-0.1,0-0.1,0-0.2,0h-16.6c-0.1,0-0.1,0-0.2,0c-0.7,0-2.1,0.2-3.4,0.9c-2.3,1.1-4.8,3.7-6.6,8c-1.8,4.5-2.9,10.9-2.9,20.7
		c0,2.5,0.1,5.2,0.2,8.2c0.1,1.8,1.7,3.2,3.4,3.2C1630.1,64.3,1630.2,64.3,1630.2,64.3z"/>
	<circle class="st0" cx="1647.8" cy="11.1" r="9.7"/>
</g>
<g>
	<path class="st0" d="M1678,64.3c1.9-0.1,3.3-1.8,3.2-3.7c-0.2-2.8-0.2-5.4-0.2-7.8c0-10.4,1.5-16.3,3-19.3v64.4
		c0,2.9,2.4,5.3,5.3,5.3c2.9,0,5.3-2.4,5.3-5.3V59.2h2v38.7c0,2.9,2.4,5.3,5.3,5.3c2.9,0,5.3-2.4,5.3-5.3V33.6
		c0.2,0.5,0.5,1.1,0.7,1.8c1.3,3.3,2.2,8.9,2.2,17.4c0,2.4-0.1,5-0.2,7.8c-0.1,1.9,1.4,3.5,3.2,3.7c0.1,0,0.1,0,0.2,0
		c1.8,0,3.3-1.4,3.4-3.2c0.2-3,0.2-5.7,0.2-8.2c0-12.9-2.1-20.1-4.9-24.4c-1.5-2.2-3-3.5-4.6-4.3c-1.5-0.7-2.7-0.9-3.4-0.9
		c-0.1,0-0.1,0-0.2,0h-16.7c-0.1,0-0.1,0-0.2,0c-0.7,0-2.1,0.2-3.4,0.9c-2.3,1.1-4.8,3.7-6.6,8c-1.8,4.5-2.9,10.9-2.9,20.7
		c0,2.5,0.1,5.2,0.2,8.2c0.1,1.8,1.7,3.2,3.4,3.2C1677.9,64.3,1678,64.3,1678,64.3z"/>
	<circle class="st0" cx="1695.6" cy="11.1" r="9.7"/>
</g>
<g>
	<path class="st0" d="M1725.8,64.3c1.9-0.1,3.3-1.8,3.2-3.7c-0.2-2.8-0.2-5.4-0.2-7.8c0-10.4,1.5-16.3,3-19.3v64.4
		c0,2.9,2.4,5.3,5.3,5.3c2.9,0,5.3-2.4,5.3-5.3V59.2h2v38.7c0,2.9,2.4,5.3,5.3,5.3c2.9,0,5.3-2.4,5.3-5.3V33.6
		c0.2,0.5,0.5,1.1,0.7,1.8c1.3,3.3,2.2,8.9,2.2,17.4c0,2.4-0.1,5-0.2,7.8c-0.1,1.9,1.4,3.5,3.2,3.7c0.1,0,0.1,0,0.2,0
		c1.8,0,3.3-1.4,3.4-3.2c0.2-3,0.2-5.7,0.2-8.2c0-12.9-2.1-20.1-4.9-24.4c-1.5-2.2-3-3.5-4.6-4.3c-1.5-0.7-2.7-0.9-3.4-0.9
		c-0.1,0-0.1,0-0.2,0h-16.6c-0.1,0-0.1,0-0.2,0c-0.7,0-2.1,0.2-3.4,0.9c-2.3,1.1-4.8,3.7-6.6,8c-1.8,4.5-2.9,10.9-2.9,20.7
		c0,2.5,0.1,5.2,0.2,8.2c0.1,1.8,1.7,3.2,3.4,3.2C1725.7,64.3,1725.7,64.3,1725.8,64.3z"/>
	<circle class="st0" cx="1743.4" cy="11.1" r="9.7"/>
</g>
<g>
	<path class="st0" d="M1484.5,266.4c1.9-0.1,3.3-1.8,3.2-3.7c-0.2-2.8-0.2-5.4-0.2-7.8c0-10.4,1.5-16.3,3-19.3V300
		c0,2.9,2.4,5.3,5.3,5.3c2.9,0,5.3-2.4,5.3-5.3v-38.7h2V300c0,2.9,2.4,5.3,5.3,5.3c2.9,0,5.3-2.4,5.3-5.3v-64.3
		c0.2,0.5,0.5,1.1,0.7,1.8c1.3,3.3,2.2,8.9,2.2,17.4c0,2.4-0.1,5-0.2,7.8c-0.1,1.9,1.4,3.5,3.2,3.7c0.1,0,0.1,0,0.2,0
		c1.8,0,3.3-1.4,3.4-3.2c0.2-3,0.2-5.7,0.2-8.2c0-12.9-2.1-20.1-4.9-24.4c-1.5-2.2-3-3.5-4.6-4.3c-1.5-0.7-2.7-0.9-3.4-0.9
		c-0.1,0-0.1,0-0.2,0h-16.6c-0.1,0-0.1,0-0.2,0c-0.7,0-2.1,0.2-3.4,0.9c-2.3,1.1-4.8,3.7-6.6,8c-1.8,4.5-2.9,10.9-2.9,20.7
		c0,2.5,0.1,5.2,0.2,8.2c0.1,1.8,1.7,3.2,3.4,3.2C1484.4,266.4,1484.4,266.4,1484.5,266.4z"/>
	<circle class="st0" cx="1502" cy="213.2" r="9.7"/>
</g>
<g>
	<path class="st0" d="M1532.3,266.4c1.9-0.1,3.3-1.8,3.2-3.7c-0.2-2.8-0.2-5.4-0.2-7.8c0-10.4,1.5-16.3,3-19.3V300
		c0,2.9,2.4,5.3,5.3,5.3c2.9,0,5.3-2.4,5.3-5.3v-38.7h2V300c0,2.9,2.4,5.3,5.3,5.3c2.9,0,5.3-2.4,5.3-5.3v-64.3
		c0.2,0.5,0.5,1.1,0.7,1.8c1.3,3.3,2.2,8.9,2.2,17.4c0,2.4-0.1,5-0.2,7.8c-0.1,1.9,1.4,3.5,3.2,3.7c0.1,0,0.1,0,0.2,0
		c1.8,0,3.3-1.4,3.4-3.2c0.2-3,0.2-5.7,0.2-8.2c0-12.9-2.1-20.1-4.9-24.4c-1.5-2.2-3-3.5-4.6-4.3c-1.5-0.7-2.7-0.9-3.4-0.9
		c-0.1,0-0.1,0-0.2,0h-16.6c-0.1,0-0.1,0-0.2,0c-0.7,0-2.1,0.2-3.4,0.9c-2.3,1.1-4.8,3.7-6.6,8c-1.8,4.5-2.9,10.9-2.9,20.7
		c0,2.5,0.1,5.2,0.2,8.2c0.1,1.8,1.7,3.2,3.4,3.2C1532.1,266.4,1532.2,266.4,1532.3,266.4z"/>
	<circle class="st0" cx="1549.8" cy="213.2" r="9.7"/>
</g>
<g>
	<path class="st0" d="M1580.1,266.4c1.9-0.1,3.3-1.8,3.2-3.7c-0.2-2.8-0.2-5.4-0.2-7.8c0-10.4,1.5-16.3,3-19.3V300
		c0,2.9,2.4,5.3,5.3,5.3c2.9,0,5.3-2.4,5.3-5.3v-38.7h2V300c0,2.9,2.4,5.3,5.3,5.3c2.9,0,5.3-2.4,5.3-5.3v-64.3
		c0.2,0.5,0.5,1.1,0.7,1.8c1.3,3.3,2.2,8.9,2.2,17.4c0,2.4-0.1,5-0.2,7.8c-0.1,1.9,1.4,3.5,3.2,3.7c0.1,0,0.1,0,0.2,0
		c1.8,0,3.3-1.4,3.4-3.2c0.2-3,0.2-5.7,0.2-8.2c0-12.9-2.1-20.1-4.9-24.4c-1.5-2.2-3-3.5-4.6-4.3c-1.5-0.7-2.7-0.9-3.4-0.9
		c-0.1,0-0.1,0-0.2,0h-16.6c-0.1,0-0.1,0-0.2,0c-0.7,0-2.1,0.2-3.4,0.9c-2.3,1.1-4.8,3.7-6.6,8c-1.8,4.5-2.9,10.9-2.9,20.7
		c0,2.5,0.1,5.2,0.2,8.2c0.1,1.8,1.7,3.2,3.4,3.2C1579.9,266.4,1580,266.4,1580.1,266.4z"/>
	<circle class="st0" cx="1597.6" cy="213.2" r="9.7"/>
</g>
<g>
	<path class="st0" d="M1627.8,266.4c1.9-0.1,3.3-1.8,3.2-3.7c-0.2-2.8-0.2-5.4-0.2-7.8c0-10.4,1.5-16.3,3-19.3V300
		c0,2.9,2.4,5.3,5.3,5.3s5.3-2.4,5.3-5.3v-38.7h2V300c0,2.9,2.4,5.3,5.3,5.3c2.9,0,5.3-2.4,5.3-5.3v-64.3c0.2,0.5,0.5,1.1,0.7,1.8
		c1.3,3.3,2.2,8.9,2.2,17.4c0,2.4-0.1,5-0.2,7.8c-0.1,1.9,1.4,3.5,3.2,3.7c0.1,0,0.1,0,0.2,0c1.8,0,3.3-1.4,3.4-3.2
		c0.2-3,0.2-5.7,0.2-8.2c0-12.9-2.1-20.1-4.9-24.4c-1.5-2.2-3-3.5-4.6-4.3c-1.5-0.7-2.7-0.9-3.4-0.9c-0.1,0-0.1,0-0.2,0h-16.6
		c-0.1,0-0.1,0-0.2,0c-0.7,0-2.1,0.2-3.4,0.9c-2.3,1.1-4.8,3.7-6.6,8c-1.8,4.5-2.9,10.9-2.9,20.7c0,2.5,0.1,5.2,0.2,8.2
		c0.1,1.8,1.7,3.2,3.4,3.2C1627.7,266.4,1627.8,266.4,1627.8,266.4z"/>
	<circle class="st0" cx="1645.4" cy="213.2" r="9.7"/>
</g>
<g>
	<path class="st0" d="M1675.6,266.4c1.9-0.1,3.3-1.8,3.2-3.7c-0.2-2.8-0.2-5.4-0.2-7.8c0-10.4,1.5-16.3,3-19.3V300
		c0,2.9,2.4,5.3,5.3,5.3s5.3-2.4,5.3-5.3v-38.7h2V300c0,2.9,2.4,5.3,5.3,5.3c2.9,0,5.3-2.4,5.3-5.3v-64.3c0.2,0.5,0.5,1.1,0.7,1.8
		c1.3,3.3,2.2,8.9,2.2,17.4c0,2.4-0.1,5-0.2,7.8c-0.1,1.9,1.4,3.5,3.2,3.7c0.1,0,0.1,0,0.2,0c1.8,0,3.3-1.4,3.4-3.2
		c0.2-3,0.2-5.7,0.2-8.2c0-12.9-2.1-20.1-4.9-24.4c-1.5-2.2-3-3.5-4.6-4.3c-1.5-0.7-2.7-0.9-3.4-0.9c-0.1,0-0.1,0-0.2,0h-16.7
		c-0.1,0-0.1,0-0.2,0c-0.7,0-2.1,0.2-3.4,0.9c-2.3,1.1-4.8,3.7-6.6,8c-1.8,4.5-2.9,10.9-2.9,20.7c0,2.5,0.1,5.2,0.2,8.2
		c0.1,1.8,1.7,3.2,3.4,3.2C1675.5,266.4,1675.6,266.4,1675.6,266.4z"/>
	<circle class="st0" cx="1693.2" cy="213.2" r="9.7"/>
</g>
<g>
	<path class="st0" d="M1723.4,266.4c1.9-0.1,3.3-1.8,3.2-3.7c-0.2-2.8-0.2-5.4-0.2-7.8c0-10.4,1.5-16.3,3-19.3V300
		c0,2.9,2.4,5.3,5.3,5.3s5.3-2.4,5.3-5.3v-38.7h2V300c0,2.9,2.4,5.3,5.3,5.3s5.3-2.4,5.3-5.3v-64.3c0.2,0.5,0.5,1.1,0.7,1.8
		c1.3,3.3,2.2,8.9,2.2,17.4c0,2.4-0.1,5-0.2,7.8c-0.1,1.9,1.4,3.5,3.2,3.7c0.1,0,0.1,0,0.2,0c1.8,0,3.3-1.4,3.4-3.2
		c0.2-3,0.2-5.7,0.2-8.2c0-12.9-2.1-20.1-4.9-24.4c-1.5-2.2-3-3.5-4.6-4.3c-1.5-0.7-2.7-0.9-3.4-0.9c-0.1,0-0.1,0-0.2,0h-16.6
		c-0.1,0-0.1,0-0.2,0c-0.7,0-2.1,0.2-3.4,0.9c-2.3,1.1-4.8,3.7-6.6,8c-1.8,4.5-2.9,10.9-2.9,20.7c0,2.5,0.1,5.2,0.2,8.2
		c0.1,1.8,1.7,3.2,3.4,3.2C1723.3,266.4,1723.3,266.4,1723.4,266.4z"/>
	<circle class="st0" cx="1741" cy="213.2" r="9.7"/>
</g>
<g>
	<path class="st0" d="M1462.9,166.2c1.9-0.1,3.3-1.8,3.2-3.7c-0.2-2.8-0.2-5.4-0.2-7.8c0-10.4,1.5-16.3,3-19.3v64.4
		c0,2.9,2.4,5.3,5.3,5.3c2.9,0,5.3-2.4,5.3-5.3v-38.7h2v38.7c0,2.9,2.4,5.3,5.3,5.3c2.9,0,5.3-2.4,5.3-5.3v-64.4
		c0.2,0.5,0.5,1.1,0.7,1.8c1.3,3.3,2.2,8.9,2.2,17.4c0,2.4-0.1,5-0.2,7.8c-0.1,1.9,1.4,3.5,3.2,3.7c0.1,0,0.1,0,0.2,0
		c1.8,0,3.3-1.4,3.4-3.2c0.2-3,0.2-5.7,0.2-8.2c0-12.9-2.1-20.1-4.9-24.4c-1.5-2.2-3-3.5-4.6-4.3c-1.5-0.7-2.7-0.9-3.4-0.9
		c-0.1,0-0.1,0-0.2,0h-16.6c-0.1,0-0.1,0-0.2,0c-0.7,0-2.1,0.2-3.4,0.9c-2.3,1.1-4.8,3.7-6.6,8c-1.8,4.5-2.9,10.9-2.9,20.7
		c0,2.5,0.1,5.2,0.2,8.2c0.1,1.8,1.7,3.2,3.4,3.2C1462.8,166.2,1462.9,166.2,1462.9,166.2z"/>
	<circle class="st0" cx="1480.6" cy="113" r="9.7"/>
</g>
<g>
	<path class="st0" d="M1510.7,166.2c1.9-0.1,3.3-1.8,3.2-3.7c-0.2-2.8-0.2-5.4-0.2-7.8c0-10.4,1.5-16.3,3-19.3v64.4
		c0,2.9,2.4,5.3,5.3,5.3c2.9,0,5.3-2.4,5.3-5.3v-38.7h2v38.7c0,2.9,2.4,5.3,5.3,5.3c2.9,0,5.3-2.4,5.3-5.3v-64.4
		c0.2,0.5,0.5,1.1,0.7,1.8c1.3,3.3,2.2,8.9,2.2,17.4c0,2.4-0.1,5-0.2,7.8c-0.1,1.9,1.4,3.5,3.2,3.7c0.1,0,0.1,0,0.2,0
		c1.8,0,3.3-1.4,3.4-3.2c0.2-3,0.2-5.7,0.2-8.2c0-12.9-2.1-20.1-4.9-24.4c-1.5-2.2-3-3.5-4.6-4.3c-1.5-0.7-2.7-0.9-3.4-0.9
		c-0.1,0-0.1,0-0.2,0h-16.6c-0.1,0-0.1,0-0.2,0c-0.7,0-2.1,0.2-3.4,0.9c-2.3,1.1-4.8,3.7-6.6,8c-1.8,4.5-2.9,10.9-2.9,20.7
		c0,2.5,0.1,5.2,0.2,8.2c0.1,1.8,1.7,3.2,3.4,3.2C1510.6,166.2,1510.7,166.2,1510.7,166.2z"/>
	<circle class="st0" cx="1528.4" cy="113" r="9.7"/>
</g>
<g>
	<path class="st0" d="M1558.5,166.2c1.9-0.1,3.3-1.8,3.2-3.7c-0.2-2.8-0.2-5.4-0.2-7.8c0-10.4,1.5-16.3,3-19.3v64.4
		c0,2.9,2.4,5.3,5.3,5.3s5.3-2.4,5.3-5.3v-38.7h2v38.7c0,2.9,2.4,5.3,5.3,5.3c2.9,0,5.3-2.4,5.3-5.3v-64.4c0.2,0.5,0.5,1.1,0.7,1.8
		c1.3,3.3,2.2,8.9,2.2,17.4c0,2.4-0.1,5-0.2,7.8c-0.1,1.9,1.4,3.5,3.2,3.7c0.1,0,0.1,0,0.2,0c1.8,0,3.3-1.4,3.4-3.2
		c0.2-3,0.2-5.7,0.2-8.2c0-12.9-2.1-20.1-4.9-24.4c-1.5-2.2-3-3.5-4.6-4.3c-1.5-0.7-2.7-0.9-3.4-0.9c-0.1,0-0.1,0-0.2,0h-16.6
		c-0.1,0-0.1,0-0.2,0c-0.7,0-2.1,0.2-3.4,0.9c-2.3,1.1-4.8,3.7-6.6,8c-1.8,4.5-2.9,10.9-2.9,20.7c0,2.5,0.1,5.2,0.2,8.2
		c0.1,1.8,1.7,3.2,3.4,3.2C1558.4,166.2,1558.4,166.2,1558.5,166.2z"/>
	<circle class="st0" cx="1576.2" cy="113" r="9.7"/>
</g>
<g>
	<path class="st0" d="M1606.3,166.2c1.9-0.1,3.3-1.8,3.2-3.7c-0.2-2.8-0.2-5.4-0.2-7.8c0-10.4,1.5-16.3,3-19.3v64.4
		c0,2.9,2.4,5.3,5.3,5.3s5.3-2.4,5.3-5.3v-38.7h2v38.7c0,2.9,2.4,5.3,5.3,5.3c2.9,0,5.3-2.4,5.3-5.3v-64.4c0.2,0.5,0.5,1.1,0.7,1.8
		c1.3,3.3,2.2,8.9,2.2,17.4c0,2.4-0.1,5-0.2,7.8c-0.1,1.9,1.4,3.5,3.2,3.7c0.1,0,0.1,0,0.2,0c1.8,0,3.3-1.4,3.4-3.2
		c0.2-3,0.2-5.7,0.2-8.2c0-12.9-2.1-20.1-4.9-24.4c-1.5-2.2-3-3.5-4.6-4.3c-1.5-0.7-2.7-0.9-3.4-0.9c-0.1,0-0.1,0-0.2,0h-16.6
		c-0.1,0-0.1,0-0.2,0c-0.7,0-2.1,0.2-3.4,0.9c-2.3,1.1-4.8,3.7-6.6,8c-1.8,4.5-2.9,10.9-2.9,20.7c0,2.5,0.1,5.2,0.2,8.2
		c0.1,1.8,1.7,3.2,3.4,3.2C1606.2,166.2,1606.2,166.2,1606.3,166.2z"/>
	<circle class="st0" cx="1623.9" cy="113" r="9.7"/>
</g>
<g>
	<path class="st0" d="M1654.1,166.2c1.9-0.1,3.3-1.8,3.2-3.7c-0.2-2.8-0.2-5.4-0.2-7.8c0-10.4,1.5-16.3,3-19.3v64.4
		c0,2.9,2.4,5.3,5.3,5.3s5.3-2.4,5.3-5.3v-38.7h2v38.7c0,2.9,2.4,5.3,5.3,5.3s5.3-2.4,5.3-5.3v-64.4c0.2,0.5,0.5,1.1,0.7,1.8
		c1.3,3.3,2.2,8.9,2.2,17.4c0,2.4-0.1,5-0.2,7.8c-0.1,1.9,1.4,3.5,3.2,3.7c0.1,0,0.1,0,0.2,0c1.8,0,3.3-1.4,3.4-3.2
		c0.2-3,0.2-5.7,0.2-8.2c0-12.9-2.1-20.1-4.9-24.4c-1.5-2.2-3-3.5-4.6-4.3c-1.5-0.7-2.7-0.9-3.4-0.9c-0.1,0-0.1,0-0.2,0h-16.6
		c-0.1,0-0.1,0-0.2,0c-0.7,0-2.1,0.2-3.4,0.9c-2.3,1.1-4.8,3.7-6.6,8c-1.8,4.5-2.9,10.9-2.9,20.7c0,2.5,0.1,5.2,0.2,8.2
		c0.1,1.8,1.7,3.2,3.4,3.2C1654,166.2,1654,166.2,1654.1,166.2z"/>
	<circle class="st0" cx="1671.7" cy="113" r="9.7"/>
</g>
<g>
	<path class="st0" d="M1701.9,166.2c1.9-0.1,3.3-1.8,3.2-3.7c-0.2-2.8-0.2-5.4-0.2-7.8c0-10.4,1.5-16.3,3-19.3v64.4
		c0,2.9,2.4,5.3,5.3,5.3c2.9,0,5.3-2.4,5.3-5.3v-38.7h2v38.7c0,2.9,2.4,5.3,5.3,5.3s5.3-2.4,5.3-5.3v-64.4c0.2,0.5,0.5,1.1,0.7,1.8
		c1.3,3.3,2.2,8.9,2.2,17.4c0,2.4-0.1,5-0.2,7.8c-0.1,1.9,1.4,3.5,3.2,3.7c0.1,0,0.1,0,0.2,0c1.8,0,3.3-1.4,3.4-3.2
		c0.2-3,0.2-5.7,0.2-8.2c0-12.9-2.1-20.1-4.9-24.4c-1.5-2.2-3-3.5-4.6-4.3c-1.5-0.7-2.7-0.9-3.4-0.9c-0.1,0-0.1,0-0.2,0h-16.6
		c-0.1,0-0.1,0-0.2,0c-0.7,0-2.1,0.2-3.4,0.9c-2.3,1.1-4.8,3.7-6.6,8c-1.8,4.5-2.9,10.9-2.9,20.7c0,2.5,0.1,5.2,0.2,8.2
		c0.1,1.8,1.7,3.2,3.4,3.2C1701.7,166.2,1701.8,166.2,1701.9,166.2z"/>
	<circle class="st0" cx="1719.5" cy="113" r="9.7"/>
</g>
</svg>
